%TF.GenerationSoftware,KiCad,Pcbnew,(6.0.4)*%
%TF.CreationDate,2022-04-24T19:44:17+02:00*%
%TF.ProjectId,fancy-clock,66616e63-792d-4636-9c6f-636b2e6b6963,rev 1.0*%
%TF.SameCoordinates,Original*%
%TF.FileFunction,Paste,Top*%
%TF.FilePolarity,Positive*%
%FSLAX46Y46*%
G04 Gerber Fmt 4.6, Leading zero omitted, Abs format (unit mm)*
G04 Created by KiCad (PCBNEW (6.0.4)) date 2022-04-24 19:44:17*
%MOMM*%
%LPD*%
G01*
G04 APERTURE LIST*
G04 Aperture macros list*
%AMRoundRect*
0 Rectangle with rounded corners*
0 $1 Rounding radius*
0 $2 $3 $4 $5 $6 $7 $8 $9 X,Y pos of 4 corners*
0 Add a 4 corners polygon primitive as box body*
4,1,4,$2,$3,$4,$5,$6,$7,$8,$9,$2,$3,0*
0 Add four circle primitives for the rounded corners*
1,1,$1+$1,$2,$3*
1,1,$1+$1,$4,$5*
1,1,$1+$1,$6,$7*
1,1,$1+$1,$8,$9*
0 Add four rect primitives between the rounded corners*
20,1,$1+$1,$2,$3,$4,$5,0*
20,1,$1+$1,$4,$5,$6,$7,0*
20,1,$1+$1,$6,$7,$8,$9,0*
20,1,$1+$1,$8,$9,$2,$3,0*%
G04 Aperture macros list end*
%ADD10RoundRect,0.250000X-0.400000X-0.625000X0.400000X-0.625000X0.400000X0.625000X-0.400000X0.625000X0*%
%ADD11RoundRect,0.250000X0.625000X-0.400000X0.625000X0.400000X-0.625000X0.400000X-0.625000X-0.400000X0*%
%ADD12RoundRect,0.250000X-0.325000X-0.450000X0.325000X-0.450000X0.325000X0.450000X-0.325000X0.450000X0*%
%ADD13RoundRect,0.250000X-0.412500X-0.650000X0.412500X-0.650000X0.412500X0.650000X-0.412500X0.650000X0*%
%ADD14RoundRect,0.250000X-0.625000X0.400000X-0.625000X-0.400000X0.625000X-0.400000X0.625000X0.400000X0*%
%ADD15RoundRect,0.250000X-0.337500X-0.475000X0.337500X-0.475000X0.337500X0.475000X-0.337500X0.475000X0*%
%ADD16R,3.200000X0.400000*%
%ADD17R,1.600000X0.550000*%
%ADD18R,0.550000X1.600000*%
%ADD19RoundRect,0.250000X0.337500X0.475000X-0.337500X0.475000X-0.337500X-0.475000X0.337500X-0.475000X0*%
%ADD20RoundRect,0.150000X0.150000X-0.512500X0.150000X0.512500X-0.150000X0.512500X-0.150000X-0.512500X0*%
%ADD21RoundRect,0.150000X0.800000X0.150000X-0.800000X0.150000X-0.800000X-0.150000X0.800000X-0.150000X0*%
G04 APERTURE END LIST*
D10*
%TO.C,R18*%
X143806000Y-78340000D03*
X146906000Y-78340000D03*
%TD*%
D11*
%TO.C,R13*%
X115824000Y-82348000D03*
X115824000Y-79248000D03*
%TD*%
D12*
%TO.C,D1*%
X153729000Y-86976000D03*
X155779000Y-86976000D03*
%TD*%
D13*
%TO.C,C5*%
X151159500Y-73768000D03*
X154284500Y-73768000D03*
%TD*%
D14*
%TO.C,R8*%
X128338000Y-83540000D03*
X128338000Y-86640000D03*
%TD*%
D11*
%TO.C,R2*%
X124782000Y-68968000D03*
X124782000Y-65868000D03*
%TD*%
D14*
%TO.C,R21*%
X142308000Y-84410000D03*
X142308000Y-87510000D03*
%TD*%
D15*
%TO.C,C3*%
X138984500Y-78340000D03*
X141059500Y-78340000D03*
%TD*%
D11*
%TO.C,R15*%
X115824000Y-72188000D03*
X115824000Y-69088000D03*
%TD*%
D16*
%TO.C,Y2*%
X123063000Y-78048000D03*
X123063000Y-79248000D03*
X123063000Y-80448000D03*
%TD*%
D11*
%TO.C,R4*%
X119702000Y-68968000D03*
X119702000Y-65868000D03*
%TD*%
D14*
%TO.C,R5*%
X120650000Y-83540000D03*
X120650000Y-86640000D03*
%TD*%
D17*
%TO.C,U1*%
X127644000Y-74016000D03*
X127644000Y-74816000D03*
X127644000Y-75616000D03*
X127644000Y-76416000D03*
X127644000Y-77216000D03*
X127644000Y-78016000D03*
X127644000Y-78816000D03*
X127644000Y-79616000D03*
D18*
X129094000Y-81066000D03*
X129894000Y-81066000D03*
X130694000Y-81066000D03*
X131494000Y-81066000D03*
X132294000Y-81066000D03*
X133094000Y-81066000D03*
X133894000Y-81066000D03*
X134694000Y-81066000D03*
D17*
X136144000Y-79616000D03*
X136144000Y-78816000D03*
X136144000Y-78016000D03*
X136144000Y-77216000D03*
X136144000Y-76416000D03*
X136144000Y-75616000D03*
X136144000Y-74816000D03*
X136144000Y-74016000D03*
D18*
X134694000Y-72566000D03*
X133894000Y-72566000D03*
X133094000Y-72566000D03*
X132294000Y-72566000D03*
X131494000Y-72566000D03*
X130694000Y-72566000D03*
X129894000Y-72566000D03*
X129094000Y-72566000D03*
%TD*%
D11*
%TO.C,R14*%
X115824000Y-77268000D03*
X115824000Y-74168000D03*
%TD*%
D14*
%TO.C,R6*%
X123258000Y-83540000D03*
X123258000Y-86640000D03*
%TD*%
D13*
%TO.C,C4*%
X151159500Y-80372000D03*
X154284500Y-80372000D03*
%TD*%
D19*
%TO.C,C6*%
X122263500Y-75546000D03*
X120188500Y-75546000D03*
%TD*%
D20*
%TO.C,U7*%
X152516800Y-78201100D03*
X153466800Y-78201100D03*
X154416800Y-78201100D03*
X154416800Y-75926100D03*
X152516800Y-75926100D03*
%TD*%
D11*
%TO.C,R1*%
X127322000Y-68968000D03*
X127322000Y-65868000D03*
%TD*%
D14*
%TO.C,R19*%
X129862000Y-65868000D03*
X129862000Y-68968000D03*
%TD*%
%TO.C,R10*%
X134688000Y-84410000D03*
X134688000Y-87510000D03*
%TD*%
%TO.C,R7*%
X125798000Y-83540000D03*
X125798000Y-86640000D03*
%TD*%
%TO.C,R11*%
X137228000Y-84410000D03*
X137228000Y-87510000D03*
%TD*%
D10*
%TO.C,R17*%
X143806000Y-75800000D03*
X146906000Y-75800000D03*
%TD*%
D14*
%TO.C,R9*%
X132148000Y-84410000D03*
X132148000Y-87510000D03*
%TD*%
%TO.C,R12*%
X139768000Y-84410000D03*
X139768000Y-87510000D03*
%TD*%
D10*
%TO.C,R20*%
X143806000Y-80880000D03*
X146906000Y-80880000D03*
%TD*%
%TO.C,R16*%
X143806000Y-73260000D03*
X146906000Y-73260000D03*
%TD*%
D21*
%TO.C,U2*%
X143268000Y-69577000D03*
X143268000Y-68307000D03*
X143268000Y-67037000D03*
X143268000Y-65767000D03*
X136268000Y-65767000D03*
X136268000Y-67037000D03*
X136268000Y-68307000D03*
X136268000Y-69577000D03*
%TD*%
D11*
%TO.C,R3*%
X122242000Y-68968000D03*
X122242000Y-65868000D03*
%TD*%
M02*
