%TF.GenerationSoftware,KiCad,Pcbnew,(6.0.4)*%
%TF.CreationDate,2022-04-24T19:44:17+02:00*%
%TF.ProjectId,fancy-clock,66616e63-792d-4636-9c6f-636b2e6b6963,rev 1.0*%
%TF.SameCoordinates,Original*%
%TF.FileFunction,Copper,L2,Bot*%
%TF.FilePolarity,Positive*%
%FSLAX46Y46*%
G04 Gerber Fmt 4.6, Leading zero omitted, Abs format (unit mm)*
G04 Created by KiCad (PCBNEW (6.0.4)) date 2022-04-24 19:44:17*
%MOMM*%
%LPD*%
G01*
G04 APERTURE LIST*
G04 Aperture macros list*
%AMRoundRect*
0 Rectangle with rounded corners*
0 $1 Rounding radius*
0 $2 $3 $4 $5 $6 $7 $8 $9 X,Y pos of 4 corners*
0 Add a 4 corners polygon primitive as box body*
4,1,4,$2,$3,$4,$5,$6,$7,$8,$9,$2,$3,0*
0 Add four circle primitives for the rounded corners*
1,1,$1+$1,$2,$3*
1,1,$1+$1,$4,$5*
1,1,$1+$1,$6,$7*
1,1,$1+$1,$8,$9*
0 Add four rect primitives between the rounded corners*
20,1,$1+$1,$2,$3,$4,$5,0*
20,1,$1+$1,$4,$5,$6,$7,0*
20,1,$1+$1,$6,$7,$8,$9,0*
20,1,$1+$1,$8,$9,$2,$3,0*%
G04 Aperture macros list end*
%TA.AperFunction,ComponentPad*%
%ADD10R,1.500000X1.500000*%
%TD*%
%TA.AperFunction,ComponentPad*%
%ADD11C,1.500000*%
%TD*%
%TA.AperFunction,ComponentPad*%
%ADD12C,1.000000*%
%TD*%
%TA.AperFunction,ComponentPad*%
%ADD13R,3.500000X3.500000*%
%TD*%
%TA.AperFunction,ComponentPad*%
%ADD14RoundRect,0.750000X0.750000X1.000000X-0.750000X1.000000X-0.750000X-1.000000X0.750000X-1.000000X0*%
%TD*%
%TA.AperFunction,ComponentPad*%
%ADD15RoundRect,0.875000X0.875000X0.875000X-0.875000X0.875000X-0.875000X-0.875000X0.875000X-0.875000X0*%
%TD*%
%TA.AperFunction,ComponentPad*%
%ADD16R,1.700000X1.700000*%
%TD*%
%TA.AperFunction,ComponentPad*%
%ADD17O,1.700000X1.700000*%
%TD*%
%TA.AperFunction,ComponentPad*%
%ADD18C,2.000000*%
%TD*%
%TA.AperFunction,ComponentPad*%
%ADD19C,1.400000*%
%TD*%
%TA.AperFunction,ComponentPad*%
%ADD20O,1.400000X1.400000*%
%TD*%
%TA.AperFunction,ComponentPad*%
%ADD21R,3.000000X3.000000*%
%TD*%
%TA.AperFunction,ComponentPad*%
%ADD22C,3.000000*%
%TD*%
%TA.AperFunction,ComponentPad*%
%ADD23R,2.000000X2.000000*%
%TD*%
%TA.AperFunction,ComponentPad*%
%ADD24C,1.700000*%
%TD*%
%TA.AperFunction,ViaPad*%
%ADD25C,0.800000*%
%TD*%
%TA.AperFunction,Conductor*%
%ADD26C,0.250000*%
%TD*%
%TA.AperFunction,Conductor*%
%ADD27C,0.500000*%
%TD*%
G04 APERTURE END LIST*
D10*
%TO.P,Q1,1,E*%
%TO.N,+5V*%
X132080000Y-90699000D03*
D11*
%TO.P,Q1,2,B*%
%TO.N,SD1*%
X129540000Y-90699000D03*
%TO.P,Q1,3,C*%
%TO.N,Net-(Q1-Pad3)*%
X127000000Y-90699000D03*
%TD*%
D12*
%TO.P,Y1,1,1*%
%TO.N,Net-(U2-Pad2)*%
X146007000Y-68641000D03*
%TO.P,Y1,2,2*%
%TO.N,Net-(U2-Pad3)*%
X146007000Y-66741000D03*
%TD*%
D10*
%TO.P,Q5,1,E*%
%TO.N,GND*%
X160274000Y-67035000D03*
D11*
%TO.P,Q5,2,B*%
%TO.N,Net-(Q5-Pad2)*%
X162814000Y-67035000D03*
%TO.P,Q5,3,C*%
%TO.N,Net-(BZ1-Pad2)*%
X165354000Y-67035000D03*
%TD*%
D13*
%TO.P,J2,1*%
%TO.N,Net-(U7-Pad1)*%
X191437000Y-83821000D03*
D14*
%TO.P,J2,2*%
%TO.N,GND*%
X197437000Y-83821000D03*
D15*
%TO.P,J2,3*%
X194437000Y-79121000D03*
%TD*%
D10*
%TO.P,Q3,1,E*%
%TO.N,+5V*%
X181356000Y-90678000D03*
D11*
%TO.P,Q3,2,B*%
%TO.N,SD3*%
X178816000Y-90678000D03*
%TO.P,Q3,3,C*%
%TO.N,Net-(Q3-Pad3)*%
X176276000Y-90678000D03*
%TD*%
D16*
%TO.P,J1,1,Pin_1*%
%TO.N,BUZZER*%
X145864000Y-86722000D03*
D17*
%TO.P,J1,2,Pin_2*%
%TO.N,+5V*%
X145864000Y-84182000D03*
%TO.P,J1,3,Pin_3*%
%TO.N,LED*%
X148404000Y-86722000D03*
%TO.P,J1,4,Pin_4*%
%TO.N,/PB3*%
X148404000Y-84182000D03*
%TO.P,J1,5,Pin_5*%
%TO.N,RESET*%
X150944000Y-86722000D03*
%TO.P,J1,6,Pin_6*%
%TO.N,GND*%
X150944000Y-84182000D03*
%TD*%
D18*
%TO.P,SW2,1,1*%
%TO.N,Net-(R13-Pad2)*%
X106478000Y-74008500D03*
X112978000Y-74008500D03*
%TO.P,SW2,2,2*%
%TO.N,BUTTON*%
X106478000Y-78508500D03*
X112978000Y-78508500D03*
%TD*%
D19*
%TO.P,TH1,1*%
%TO.N,+5V*%
X151257000Y-61849000D03*
D20*
%TO.P,TH1,2*%
%TO.N,TEMP*%
X151257000Y-64389000D03*
%TD*%
%TO.P,PR1,2*%
%TO.N,PHOTO*%
X156591000Y-64389000D03*
D19*
%TO.P,PR1,1*%
%TO.N,+5V*%
X156591000Y-61849000D03*
%TD*%
D21*
%TO.P,BT1,1,+*%
%TO.N,+BATT*%
X163261584Y-76454000D03*
D22*
%TO.P,BT1,2,-*%
%TO.N,GND*%
X183751584Y-76454000D03*
%TD*%
D10*
%TO.P,Q4,1,E*%
%TO.N,+5V*%
X176149000Y-61701000D03*
D11*
%TO.P,Q4,2,B*%
%TO.N,SD4*%
X178689000Y-61701000D03*
%TO.P,Q4,3,C*%
%TO.N,Net-(Q4-Pad3)*%
X181229000Y-61701000D03*
%TD*%
D18*
%TO.P,SW3,1,1*%
%TO.N,GND*%
X112978000Y-81882500D03*
X106478000Y-81882500D03*
%TO.P,SW3,2,2*%
%TO.N,RESET*%
X112978000Y-86382500D03*
X106478000Y-86382500D03*
%TD*%
D10*
%TO.P,Q2,1,E*%
%TO.N,+5V*%
X126873000Y-61701000D03*
D11*
%TO.P,Q2,2,B*%
%TO.N,SD2*%
X129413000Y-61701000D03*
%TO.P,Q2,3,C*%
%TO.N,Net-(Q2-Pad3)*%
X131953000Y-61701000D03*
%TD*%
D23*
%TO.P,BZ1,1,-*%
%TO.N,+5V*%
X191907000Y-70612000D03*
D18*
%TO.P,BZ1,2,+*%
%TO.N,Net-(BZ1-Pad2)*%
X199507000Y-70612000D03*
%TD*%
%TO.P,SW1,1,1*%
%TO.N,Net-(R14-Pad2)*%
X112978000Y-66134500D03*
X106478000Y-66134500D03*
%TO.P,SW1,2,2*%
%TO.N,BUTTON*%
X106478000Y-70634500D03*
X112978000Y-70634500D03*
%TD*%
D24*
%TO.P,U4,1,E*%
%TO.N,/E*%
X136652000Y-61200000D03*
%TO.P,U4,2,D*%
%TO.N,/D*%
X139192000Y-61200000D03*
%TO.P,U4,3,CA*%
%TO.N,Net-(Q2-Pad3)*%
X141732000Y-61200000D03*
%TO.P,U4,4,C*%
%TO.N,/C*%
X144272000Y-61200000D03*
%TO.P,U4,5,DP*%
%TO.N,/DP*%
X146812000Y-61200000D03*
%TO.P,U4,6,B*%
%TO.N,/B*%
X146812000Y-91200000D03*
%TO.P,U4,7,A*%
%TO.N,/A*%
X144272000Y-91200000D03*
%TO.P,U4,8,CA*%
%TO.N,Net-(Q2-Pad3)*%
X141732000Y-91200000D03*
%TO.P,U4,9,F*%
%TO.N,/F*%
X139192000Y-91200000D03*
%TO.P,U4,10,G*%
%TO.N,/G*%
X136652000Y-91200000D03*
%TD*%
%TO.P,U6,1,E*%
%TO.N,/E*%
X185928000Y-61200000D03*
%TO.P,U6,2,D*%
%TO.N,/D*%
X188468000Y-61200000D03*
%TO.P,U6,3,CA*%
%TO.N,Net-(Q4-Pad3)*%
X191008000Y-61200000D03*
%TO.P,U6,4,C*%
%TO.N,/C*%
X193548000Y-61200000D03*
%TO.P,U6,5,DP*%
%TO.N,/DP*%
X196088000Y-61200000D03*
%TO.P,U6,6,B*%
%TO.N,/B*%
X196088000Y-91200000D03*
%TO.P,U6,7,A*%
%TO.N,/A*%
X193548000Y-91200000D03*
%TO.P,U6,8,CA*%
%TO.N,Net-(Q4-Pad3)*%
X191008000Y-91200000D03*
%TO.P,U6,9,F*%
%TO.N,/F*%
X188468000Y-91200000D03*
%TO.P,U6,10,G*%
%TO.N,/G*%
X185928000Y-91200000D03*
%TD*%
%TO.P,U5,1,E*%
%TO.N,/E*%
X161290000Y-61200000D03*
%TO.P,U5,2,D*%
%TO.N,/D*%
X163830000Y-61200000D03*
%TO.P,U5,3,CA*%
%TO.N,Net-(Q3-Pad3)*%
X166370000Y-61200000D03*
%TO.P,U5,4,C*%
%TO.N,/C*%
X168910000Y-61200000D03*
%TO.P,U5,5,DP*%
%TO.N,/DP*%
X171450000Y-61200000D03*
%TO.P,U5,6,B*%
%TO.N,/B*%
X171450000Y-91200000D03*
%TO.P,U5,7,A*%
%TO.N,/A*%
X168910000Y-91200000D03*
%TO.P,U5,8,CA*%
%TO.N,Net-(Q3-Pad3)*%
X166370000Y-91200000D03*
%TO.P,U5,9,F*%
%TO.N,/F*%
X163830000Y-91200000D03*
%TO.P,U5,10,G*%
%TO.N,/G*%
X161290000Y-91200000D03*
%TD*%
%TO.P,U3,1,E*%
%TO.N,/E*%
X112014000Y-61200000D03*
%TO.P,U3,2,D*%
%TO.N,/D*%
X114554000Y-61200000D03*
%TO.P,U3,3,CA*%
%TO.N,Net-(Q1-Pad3)*%
X117094000Y-61200000D03*
%TO.P,U3,4,C*%
%TO.N,/C*%
X119634000Y-61200000D03*
%TO.P,U3,5,DP*%
%TO.N,/DP*%
X122174000Y-61200000D03*
%TO.P,U3,6,B*%
%TO.N,/B*%
X122174000Y-91200000D03*
%TO.P,U3,7,A*%
%TO.N,/A*%
X119634000Y-91200000D03*
%TO.P,U3,8,CA*%
%TO.N,Net-(Q1-Pad3)*%
X117094000Y-91200000D03*
%TO.P,U3,9,F*%
%TO.N,/F*%
X114554000Y-91200000D03*
%TO.P,U3,10,G*%
%TO.N,/G*%
X112014000Y-91200000D03*
%TD*%
D25*
%TO.N,+BATT*%
X139319000Y-69596000D03*
%TO.N,GND*%
X139319000Y-76454000D03*
X148209000Y-73406000D03*
X148209000Y-78359000D03*
X125857000Y-77470000D03*
X125603000Y-75565000D03*
X155575000Y-80391000D03*
X141224000Y-65786000D03*
X148209000Y-75946000D03*
X120523000Y-79248000D03*
X155575000Y-73787000D03*
X118618000Y-75565000D03*
X153670000Y-85344000D03*
X115824000Y-67564000D03*
%TO.N,+5V*%
X122301000Y-73914000D03*
X122301000Y-72390000D03*
%TO.N,/PB3*%
X139827000Y-83058000D03*
%TO.N,RESET*%
X131445000Y-74295000D03*
%TO.N,PHOTO*%
X154669503Y-67310000D03*
X145288000Y-78232000D03*
%TO.N,SD2*%
X133477000Y-86487000D03*
%TO.N,SD4*%
X138557000Y-86487000D03*
X197934520Y-88958480D03*
%TO.N,/C*%
X122174000Y-64008000D03*
%TO.N,/DP*%
X119634000Y-64008000D03*
%TO.N,/B*%
X120650000Y-88392000D03*
%TO.N,/A*%
X123190000Y-88392000D03*
%TO.N,BUTTON*%
X134747000Y-70612000D03*
%TO.N,TEMP*%
X153670000Y-67310000D03*
X143383000Y-71501000D03*
%TD*%
D26*
%TO.N,+BATT*%
X139319000Y-69596000D02*
X141986000Y-69596000D01*
X163261584Y-74877467D02*
X163261584Y-76454000D01*
X141986000Y-69595964D02*
X145795964Y-65786000D01*
X145795964Y-65786000D02*
X154170117Y-65786000D01*
X141986000Y-69596000D02*
X141986000Y-69595964D01*
X154170117Y-65786000D02*
X163261584Y-74877467D01*
%TO.N,+5V*%
X142218499Y-60025489D02*
X128548511Y-60025489D01*
X170275489Y-90815707D02*
X170275489Y-91686499D01*
X194913489Y-61499511D02*
X194913489Y-60713501D01*
X146630001Y-92679011D02*
X166654989Y-92679011D01*
X200862511Y-62305511D02*
X200862511Y-77926511D01*
X137523489Y-90025489D02*
X138017489Y-90519489D01*
X193297990Y-62611000D02*
X192182511Y-61495521D01*
X192373489Y-91686499D02*
X191291508Y-92768480D01*
X192373489Y-90713501D02*
X192373489Y-91686499D01*
X144758499Y-62374511D02*
X145637489Y-61495521D01*
X144758499Y-90025489D02*
X145637489Y-90904479D01*
D27*
X122301000Y-72390000D02*
X122301000Y-73914000D01*
D26*
X134891511Y-90025489D02*
X137523489Y-90025489D01*
X195498511Y-92374511D02*
X194913489Y-91789489D01*
X128548511Y-60025489D02*
X126873000Y-61701000D01*
X197947489Y-92374511D02*
X195498511Y-92374511D01*
X154767489Y-60025489D02*
X156591000Y-61849000D01*
X183446480Y-92768480D02*
X191291508Y-92768480D01*
X194913489Y-90904479D02*
X194034499Y-90025489D01*
X193548000Y-70612000D02*
X200862511Y-77926511D01*
X194913489Y-60713501D02*
X195601501Y-60025489D01*
X198582489Y-60025489D02*
X200862511Y-62305511D01*
X138705501Y-92374511D02*
X142409477Y-92374511D01*
X143097489Y-91686499D02*
X143097489Y-90713501D01*
X138017489Y-91686499D02*
X138705501Y-92374511D01*
X193061501Y-90025489D02*
X192373489Y-90713501D01*
X143097489Y-90713501D02*
X143785501Y-90025489D01*
X166654989Y-92679011D02*
X167735489Y-91598511D01*
X170275489Y-91686499D02*
X171357470Y-92768480D01*
X169485271Y-90025489D02*
X170275489Y-90815707D01*
X143594523Y-62374511D02*
X142906511Y-61686499D01*
X171357470Y-92768480D02*
X179265520Y-92768480D01*
X145637489Y-90904479D02*
X145637489Y-91686499D01*
X191907000Y-70612000D02*
X193548000Y-70612000D01*
X134218000Y-90699000D02*
X134891511Y-90025489D01*
X142409477Y-92374511D02*
X143097489Y-91686499D01*
X181356000Y-90678000D02*
X183446480Y-92768480D01*
X193802000Y-62611000D02*
X194913489Y-61499511D01*
X145637489Y-61495521D02*
X145637489Y-60713501D01*
X132080000Y-90699000D02*
X134218000Y-90699000D01*
X138017489Y-90519489D02*
X138017489Y-91686499D01*
X192182511Y-61495521D02*
X192182511Y-60713501D01*
X142906511Y-61686499D02*
X142906511Y-60713501D01*
X142906511Y-60713501D02*
X142218499Y-60025489D01*
X177824511Y-60025489D02*
X176149000Y-61701000D01*
X192182511Y-60713501D02*
X191494499Y-60025489D01*
X167735489Y-90713501D02*
X168423501Y-90025489D01*
X167735489Y-91598511D02*
X167735489Y-90713501D01*
X146325501Y-60025489D02*
X148312989Y-60025489D01*
X193802000Y-62611000D02*
X193297990Y-62611000D01*
X200862511Y-77926511D02*
X200862511Y-89459489D01*
X148312989Y-60025489D02*
X149306489Y-60025489D01*
X145637489Y-91686499D02*
X146630001Y-92679011D01*
X145637489Y-60713501D02*
X146325501Y-60025489D01*
X194034499Y-90025489D02*
X193061501Y-90025489D01*
X200862511Y-89459489D02*
X197947489Y-92374511D01*
X179265520Y-92768480D02*
X181356000Y-90678000D01*
X149306489Y-60025489D02*
X151257000Y-61976000D01*
X194913489Y-91789489D02*
X194913489Y-90904479D01*
X191494499Y-60025489D02*
X177824511Y-60025489D01*
X148312989Y-60025489D02*
X154767489Y-60025489D01*
X195601501Y-60025489D02*
X198582489Y-60025489D01*
X144758499Y-62374511D02*
X143594523Y-62374511D01*
X143785501Y-90025489D02*
X144758499Y-90025489D01*
X168423501Y-90025489D02*
X169485271Y-90025489D01*
%TO.N,/PB3*%
X147229489Y-83007489D02*
X139877511Y-83007489D01*
X148404000Y-84182000D02*
X147229489Y-83007489D01*
X139877511Y-83007489D02*
X139827000Y-83058000D01*
%TO.N,RESET*%
X112978000Y-86382500D02*
X130279500Y-86382500D01*
X130279500Y-86382500D02*
X131445000Y-85217000D01*
X131699000Y-85471000D02*
X131445000Y-85217000D01*
X150944000Y-86722000D02*
X149693000Y-85471000D01*
X131445000Y-85217000D02*
X131445000Y-74295000D01*
X149693000Y-85471000D02*
X131699000Y-85471000D01*
%TO.N,PHOTO*%
X150495718Y-71628000D02*
X154669503Y-67454215D01*
X145288000Y-72517000D02*
X146177000Y-71628000D01*
X146177000Y-71628000D02*
X150495718Y-71628000D01*
X154669503Y-67454215D02*
X154669503Y-67310000D01*
X145288000Y-78232000D02*
X145288000Y-72517000D01*
%TO.N,Net-(Q2-Pad3)*%
X140194000Y-62738000D02*
X132990000Y-62738000D01*
X132990000Y-62738000D02*
X131953000Y-61701000D01*
X141732000Y-61200000D02*
X140194000Y-62738000D01*
%TO.N,SD2*%
X111125000Y-70614357D02*
X116557326Y-65182031D01*
X112429368Y-87707011D02*
X111125000Y-86402643D01*
X113526632Y-87707011D02*
X112429368Y-87707011D01*
X128238969Y-65182031D02*
X129413000Y-64008000D01*
X116557326Y-65182031D02*
X128238969Y-65182031D01*
X133032868Y-86931132D02*
X114302511Y-86931132D01*
X133477000Y-86487000D02*
X133032868Y-86931132D01*
X129413000Y-64008000D02*
X129413000Y-61701000D01*
X114302511Y-86931132D02*
X113526632Y-87707011D01*
X111125000Y-86402643D02*
X111125000Y-70614357D01*
%TO.N,Net-(Q4-Pad3)*%
X181902511Y-62374511D02*
X181229000Y-61701000D01*
X191008000Y-61200000D02*
X189833489Y-62374511D01*
X189833489Y-62374511D02*
X181902511Y-62374511D01*
%TO.N,SD4*%
X197934520Y-88958480D02*
X139123480Y-88958480D01*
X139123480Y-88958480D02*
X138557000Y-88392000D01*
X138557000Y-88392000D02*
X138557000Y-86487000D01*
%TO.N,/C*%
X122174000Y-64008000D02*
X122174000Y-63740000D01*
X170674000Y-59436000D02*
X191784000Y-59436000D01*
X167146000Y-59436000D02*
X168910000Y-61200000D01*
X168910000Y-61200000D02*
X170674000Y-59436000D01*
X191784000Y-59436000D02*
X193548000Y-61200000D01*
X146036000Y-59436000D02*
X167146000Y-59436000D01*
X119634000Y-61200000D02*
X121398000Y-59436000D01*
X142508000Y-59436000D02*
X144272000Y-61200000D01*
X144272000Y-61200000D02*
X146036000Y-59436000D01*
X121398000Y-59436000D02*
X142508000Y-59436000D01*
X122174000Y-63740000D02*
X119634000Y-61200000D01*
%TO.N,/DP*%
X128143000Y-61341000D02*
X128143000Y-62484000D01*
X128905000Y-60579000D02*
X128143000Y-61341000D01*
X127381000Y-63246000D02*
X124220000Y-63246000D01*
X194042000Y-63246000D02*
X180863433Y-63246000D01*
X169404000Y-63246000D02*
X171450000Y-61200000D01*
X180863433Y-63246000D02*
X179832000Y-62214567D01*
X146812000Y-61200000D02*
X148858000Y-63246000D01*
X179832000Y-62214567D02*
X179832000Y-61087000D01*
X148858000Y-63246000D02*
X169404000Y-63246000D01*
X122733489Y-64732511D02*
X124220000Y-63246000D01*
X122174000Y-61200000D02*
X124220000Y-63246000D01*
X130487511Y-62034511D02*
X130487511Y-61255922D01*
X130487511Y-61255922D02*
X129810589Y-60579000D01*
X120358511Y-64732511D02*
X122733489Y-64732511D01*
X144766000Y-63246000D02*
X131699000Y-63246000D01*
X179371489Y-60626489D02*
X178243922Y-60626489D01*
X177223511Y-62679489D02*
X176657000Y-63246000D01*
X129810589Y-60579000D02*
X128905000Y-60579000D01*
X194042000Y-63246000D02*
X196088000Y-61200000D01*
X179832000Y-61087000D02*
X179371489Y-60626489D01*
X171450000Y-61200000D02*
X173496000Y-63246000D01*
X128143000Y-62484000D02*
X127381000Y-63246000D01*
X176657000Y-63246000D02*
X173496000Y-63246000D01*
X146812000Y-61200000D02*
X144766000Y-63246000D01*
X131699000Y-63246000D02*
X130487511Y-62034511D01*
X177223511Y-61646900D02*
X177223511Y-62679489D01*
X119634000Y-64008000D02*
X120358511Y-64732511D01*
X178243922Y-60626489D02*
X177223511Y-61646900D01*
%TO.N,/B*%
X178435000Y-91821000D02*
X177673000Y-91059000D01*
X145187969Y-89575969D02*
X146812000Y-91200000D01*
X120650000Y-88392000D02*
X121666000Y-89408000D01*
X129094922Y-91773511D02*
X129985078Y-91773511D01*
X195992000Y-91258500D02*
X194141500Y-89408000D01*
X169785000Y-89535000D02*
X171450000Y-91200000D01*
X179324000Y-91821000D02*
X178435000Y-91821000D01*
X180086000Y-91059000D02*
X179324000Y-91821000D01*
X122078000Y-91258500D02*
X123928500Y-89408000D01*
X123928500Y-89408000D02*
X127508000Y-89408000D01*
X180476978Y-89408000D02*
X180086000Y-89798978D01*
X146812000Y-91200000D02*
X148477000Y-89535000D01*
X131054009Y-89575969D02*
X145187969Y-89575969D01*
X121666000Y-89408000D02*
X123928500Y-89408000D01*
X148477000Y-89535000D02*
X169785000Y-89535000D01*
X127508000Y-89408000D02*
X128397000Y-90297000D01*
X130698489Y-91060100D02*
X130698489Y-89931489D01*
X130698489Y-89931489D02*
X131054009Y-89575969D01*
X177673000Y-91059000D02*
X177673000Y-90551000D01*
X128397000Y-91075589D02*
X129094922Y-91773511D01*
X177673000Y-90551000D02*
X176657000Y-89535000D01*
X176657000Y-89535000D02*
X169785000Y-89535000D01*
X129985078Y-91773511D02*
X130698489Y-91060100D01*
X180086000Y-89798978D02*
X180086000Y-91059000D01*
X194141500Y-89408000D02*
X180476978Y-89408000D01*
X128397000Y-90297000D02*
X128397000Y-91075589D01*
%TO.N,/A*%
X146135500Y-93218000D02*
X166854500Y-93218000D01*
X122465489Y-87667489D02*
X120104511Y-87667489D01*
X119538000Y-91258500D02*
X121497500Y-93218000D01*
X120104511Y-87667489D02*
X119634000Y-88138000D01*
X142216500Y-93218000D02*
X144176000Y-91258500D01*
X166854500Y-93218000D02*
X168814000Y-91258500D01*
X168814000Y-91258500D02*
X170773500Y-93218000D01*
X121497500Y-93218000D02*
X142216500Y-93218000D01*
X119634000Y-88138000D02*
X119634000Y-91200000D01*
X144176000Y-91258500D02*
X146135500Y-93218000D01*
X191492500Y-93218000D02*
X193452000Y-91258500D01*
X123190000Y-88392000D02*
X122465489Y-87667489D01*
X170773500Y-93218000D02*
X191492500Y-93218000D01*
%TO.N,BUTTON*%
X111653489Y-71959011D02*
X112978000Y-70634500D01*
X112978000Y-70634500D02*
X134515500Y-70634500D01*
X111653489Y-77183989D02*
X111653489Y-71959011D01*
X112978000Y-78508500D02*
X111653489Y-77183989D01*
%TO.N,TEMP*%
X143764000Y-71120000D02*
X143383000Y-71501000D01*
X153670000Y-67818000D02*
X150368000Y-71120000D01*
X150368000Y-71120000D02*
X143764000Y-71120000D01*
X153670000Y-67310000D02*
X153670000Y-67818000D01*
%TD*%
%TA.AperFunction,Conductor*%
%TO.N,GND*%
G36*
X130275043Y-62723657D02*
G01*
X130300273Y-62743177D01*
X131195343Y-63638247D01*
X131202887Y-63646537D01*
X131207000Y-63653018D01*
X131212777Y-63658443D01*
X131256667Y-63699658D01*
X131259494Y-63702398D01*
X131279230Y-63722134D01*
X131282420Y-63724608D01*
X131291446Y-63732317D01*
X131323679Y-63762586D01*
X131334858Y-63768732D01*
X131341432Y-63772346D01*
X131357956Y-63783199D01*
X131373959Y-63795613D01*
X131414539Y-63813174D01*
X131425173Y-63818383D01*
X131463940Y-63839695D01*
X131471617Y-63841666D01*
X131471622Y-63841668D01*
X131483558Y-63844732D01*
X131502266Y-63851137D01*
X131520855Y-63859181D01*
X131528683Y-63860421D01*
X131528690Y-63860423D01*
X131564524Y-63866099D01*
X131576144Y-63868505D01*
X131607959Y-63876673D01*
X131618970Y-63879500D01*
X131639224Y-63879500D01*
X131658934Y-63881051D01*
X131678943Y-63884220D01*
X131686835Y-63883474D01*
X131705580Y-63881702D01*
X131722962Y-63880059D01*
X131734819Y-63879500D01*
X144687233Y-63879500D01*
X144698416Y-63880027D01*
X144705909Y-63881702D01*
X144713835Y-63881453D01*
X144713836Y-63881453D01*
X144773986Y-63879562D01*
X144777945Y-63879500D01*
X144805856Y-63879500D01*
X144809791Y-63879003D01*
X144809856Y-63878995D01*
X144821693Y-63878062D01*
X144853951Y-63877048D01*
X144857970Y-63876922D01*
X144865889Y-63876673D01*
X144885343Y-63871021D01*
X144904700Y-63867013D01*
X144916930Y-63865468D01*
X144916931Y-63865468D01*
X144924797Y-63864474D01*
X144932168Y-63861555D01*
X144932170Y-63861555D01*
X144965912Y-63848196D01*
X144977142Y-63844351D01*
X145011983Y-63834229D01*
X145011984Y-63834229D01*
X145019593Y-63832018D01*
X145026412Y-63827985D01*
X145026417Y-63827983D01*
X145037028Y-63821707D01*
X145054776Y-63813012D01*
X145073617Y-63805552D01*
X145093987Y-63790753D01*
X145109387Y-63779564D01*
X145119307Y-63773048D01*
X145150535Y-63754580D01*
X145150538Y-63754578D01*
X145157362Y-63750542D01*
X145171683Y-63736221D01*
X145186717Y-63723380D01*
X145188432Y-63722134D01*
X145203107Y-63711472D01*
X145231298Y-63677395D01*
X145239288Y-63668616D01*
X146118178Y-62789726D01*
X146180490Y-62755700D01*
X146208088Y-62752824D01*
X147425414Y-62760698D01*
X147493404Y-62781140D01*
X147513694Y-62797600D01*
X148354352Y-63638258D01*
X148361887Y-63646538D01*
X148366000Y-63653018D01*
X148387095Y-63672827D01*
X148415651Y-63699643D01*
X148418493Y-63702398D01*
X148438230Y-63722135D01*
X148441427Y-63724615D01*
X148450447Y-63732318D01*
X148482679Y-63762586D01*
X148489625Y-63766405D01*
X148489628Y-63766407D01*
X148500434Y-63772348D01*
X148516953Y-63783199D01*
X148532959Y-63795614D01*
X148540228Y-63798759D01*
X148540232Y-63798762D01*
X148573537Y-63813174D01*
X148584186Y-63818390D01*
X148622940Y-63839695D01*
X148630615Y-63841666D01*
X148630616Y-63841666D01*
X148642562Y-63844733D01*
X148661266Y-63851137D01*
X148661269Y-63851138D01*
X148679855Y-63859181D01*
X148687678Y-63860420D01*
X148687688Y-63860423D01*
X148723524Y-63866099D01*
X148735144Y-63868505D01*
X148766959Y-63876673D01*
X148777970Y-63879500D01*
X148798224Y-63879500D01*
X148817934Y-63881051D01*
X148837943Y-63884220D01*
X148845835Y-63883474D01*
X148864580Y-63881702D01*
X148881962Y-63880059D01*
X148893819Y-63879500D01*
X149978183Y-63879500D01*
X150046304Y-63899502D01*
X150092797Y-63953158D01*
X150102901Y-64023432D01*
X150099892Y-64038102D01*
X150062314Y-64178345D01*
X150043884Y-64389000D01*
X150062314Y-64599655D01*
X150063738Y-64604968D01*
X150063738Y-64604970D01*
X150113008Y-64788846D01*
X150117044Y-64803910D01*
X150119366Y-64808891D01*
X150119367Y-64808892D01*
X150196009Y-64973250D01*
X150206670Y-65043441D01*
X150177690Y-65108254D01*
X150118271Y-65147111D01*
X150081814Y-65152500D01*
X145874732Y-65152500D01*
X145863549Y-65151973D01*
X145856056Y-65150298D01*
X145848130Y-65150547D01*
X145848129Y-65150547D01*
X145787966Y-65152438D01*
X145784008Y-65152500D01*
X145756108Y-65152500D01*
X145752118Y-65153004D01*
X145740284Y-65153936D01*
X145696075Y-65155326D01*
X145688461Y-65157538D01*
X145688456Y-65157539D01*
X145676623Y-65160977D01*
X145657260Y-65164988D01*
X145637167Y-65167526D01*
X145629800Y-65170443D01*
X145629795Y-65170444D01*
X145596056Y-65183802D01*
X145584829Y-65187646D01*
X145542371Y-65199982D01*
X145535545Y-65204019D01*
X145524936Y-65210293D01*
X145507188Y-65218988D01*
X145488347Y-65226448D01*
X145481931Y-65231110D01*
X145481930Y-65231110D01*
X145452577Y-65252436D01*
X145442657Y-65258952D01*
X145411429Y-65277420D01*
X145411426Y-65277422D01*
X145404602Y-65281458D01*
X145390281Y-65295779D01*
X145375248Y-65308619D01*
X145358857Y-65320528D01*
X145350181Y-65331016D01*
X145330666Y-65354605D01*
X145322676Y-65363384D01*
X141760464Y-68925595D01*
X141698152Y-68959621D01*
X141671369Y-68962500D01*
X140027200Y-68962500D01*
X139959079Y-68942498D01*
X139939853Y-68926157D01*
X139939580Y-68926460D01*
X139934668Y-68922037D01*
X139930253Y-68917134D01*
X139850780Y-68859393D01*
X139781094Y-68808763D01*
X139781093Y-68808762D01*
X139775752Y-68804882D01*
X139769724Y-68802198D01*
X139769722Y-68802197D01*
X139607319Y-68729891D01*
X139607318Y-68729891D01*
X139601288Y-68727206D01*
X139507888Y-68707353D01*
X139420944Y-68688872D01*
X139420939Y-68688872D01*
X139414487Y-68687500D01*
X139223513Y-68687500D01*
X139217061Y-68688872D01*
X139217056Y-68688872D01*
X139130112Y-68707353D01*
X139036712Y-68727206D01*
X139030682Y-68729891D01*
X139030681Y-68729891D01*
X138868278Y-68802197D01*
X138868276Y-68802198D01*
X138862248Y-68804882D01*
X138856907Y-68808762D01*
X138856906Y-68808763D01*
X138836025Y-68823934D01*
X138707747Y-68917134D01*
X138703326Y-68922044D01*
X138703325Y-68922045D01*
X138585252Y-69053179D01*
X138579960Y-69059056D01*
X138545571Y-69118620D01*
X138490259Y-69214423D01*
X138484473Y-69224444D01*
X138425458Y-69406072D01*
X138424768Y-69412633D01*
X138424768Y-69412635D01*
X138409230Y-69560469D01*
X138405496Y-69596000D01*
X138406186Y-69602565D01*
X138420824Y-69741834D01*
X138425458Y-69785928D01*
X138484473Y-69967556D01*
X138487776Y-69973278D01*
X138487777Y-69973279D01*
X138521686Y-70032010D01*
X138579960Y-70132944D01*
X138584378Y-70137851D01*
X138584379Y-70137852D01*
X138676753Y-70240444D01*
X138707747Y-70274866D01*
X138862248Y-70387118D01*
X138868276Y-70389802D01*
X138868278Y-70389803D01*
X139002574Y-70449595D01*
X139036712Y-70464794D01*
X139125286Y-70483621D01*
X139217056Y-70503128D01*
X139217061Y-70503128D01*
X139223513Y-70504500D01*
X139414487Y-70504500D01*
X139420939Y-70503128D01*
X139420944Y-70503128D01*
X139512714Y-70483621D01*
X139601288Y-70464794D01*
X139635426Y-70449595D01*
X139769722Y-70389803D01*
X139769724Y-70389802D01*
X139775752Y-70387118D01*
X139930253Y-70274866D01*
X139934668Y-70269963D01*
X139939580Y-70265540D01*
X139940705Y-70266789D01*
X139994014Y-70233949D01*
X140027200Y-70229500D01*
X141907614Y-70229500D01*
X141918523Y-70230015D01*
X141925909Y-70231666D01*
X141933475Y-70231428D01*
X141934352Y-70231553D01*
X141935102Y-70231600D01*
X141937789Y-70231811D01*
X141938272Y-70231819D01*
X141945906Y-70233275D01*
X142001951Y-70229749D01*
X142009862Y-70229500D01*
X142025856Y-70229500D01*
X142029786Y-70229004D01*
X142029795Y-70229003D01*
X142030238Y-70228947D01*
X142042075Y-70228014D01*
X142071712Y-70227083D01*
X142077970Y-70226886D01*
X142085889Y-70226637D01*
X142093153Y-70224527D01*
X142094038Y-70224429D01*
X142094845Y-70224275D01*
X142097417Y-70223826D01*
X142097885Y-70223714D01*
X142105650Y-70223225D01*
X142113189Y-70220776D01*
X142113192Y-70220775D01*
X142113487Y-70220679D01*
X142136631Y-70215506D01*
X142136935Y-70215468D01*
X142136940Y-70215467D01*
X142144797Y-70214474D01*
X142152163Y-70211557D01*
X142152165Y-70211557D01*
X142186253Y-70198061D01*
X142197483Y-70194216D01*
X142231983Y-70184193D01*
X142231984Y-70184193D01*
X142239593Y-70181982D01*
X142246109Y-70178128D01*
X142246913Y-70177825D01*
X142247564Y-70177518D01*
X142250054Y-70176394D01*
X142250487Y-70176165D01*
X142257875Y-70173764D01*
X142264655Y-70169461D01*
X142264831Y-70169350D01*
X142285958Y-70158585D01*
X142286244Y-70158472D01*
X142286250Y-70158469D01*
X142293617Y-70155552D01*
X142329648Y-70129374D01*
X142339570Y-70122856D01*
X142370539Y-70104542D01*
X142370544Y-70104538D01*
X142377362Y-70100506D01*
X142382722Y-70095146D01*
X142383388Y-70094678D01*
X142383886Y-70094266D01*
X142386105Y-70092488D01*
X142386471Y-70092155D01*
X142393018Y-70088000D01*
X142398659Y-70081993D01*
X142416446Y-70066312D01*
X142416691Y-70066134D01*
X142416693Y-70066132D01*
X142423107Y-70061472D01*
X142451466Y-70027192D01*
X142459455Y-70018413D01*
X145069658Y-67408211D01*
X145131970Y-67374185D01*
X145202786Y-67379250D01*
X145257498Y-67419042D01*
X145278035Y-67444953D01*
X145282728Y-67448947D01*
X145282729Y-67448948D01*
X145382937Y-67534231D01*
X145428650Y-67573136D01*
X145439708Y-67579316D01*
X145441536Y-67580338D01*
X145491241Y-67631033D01*
X145505647Y-67700552D01*
X145480182Y-67766825D01*
X145452055Y-67792971D01*
X145452110Y-67793040D01*
X145297975Y-67916968D01*
X145170846Y-68068474D01*
X145167879Y-68073872D01*
X145167875Y-68073877D01*
X145110197Y-68178794D01*
X145075567Y-68241787D01*
X145073706Y-68247654D01*
X145073705Y-68247656D01*
X145057638Y-68298307D01*
X145015765Y-68430306D01*
X144993719Y-68626851D01*
X144994235Y-68632995D01*
X145008443Y-68802197D01*
X145010268Y-68823934D01*
X145011967Y-68829858D01*
X145049176Y-68959621D01*
X145064783Y-69014050D01*
X145090852Y-69064774D01*
X145136692Y-69153968D01*
X145155187Y-69189956D01*
X145278035Y-69344953D01*
X145428650Y-69473136D01*
X145601294Y-69569624D01*
X145789392Y-69630740D01*
X145985777Y-69654158D01*
X145991912Y-69653686D01*
X145991914Y-69653686D01*
X146176830Y-69639457D01*
X146176834Y-69639456D01*
X146182972Y-69638984D01*
X146373463Y-69585798D01*
X146378967Y-69583018D01*
X146378969Y-69583017D01*
X146544495Y-69499404D01*
X146544497Y-69499403D01*
X146549996Y-69496625D01*
X146705847Y-69374861D01*
X146835078Y-69225145D01*
X146932769Y-69053179D01*
X146995197Y-68865513D01*
X147019985Y-68669295D01*
X147020380Y-68641000D01*
X147001080Y-68444167D01*
X146943916Y-68254831D01*
X146851066Y-68080204D01*
X146768967Y-67979541D01*
X146729960Y-67931713D01*
X146729957Y-67931710D01*
X146726065Y-67926938D01*
X146714014Y-67916968D01*
X146578428Y-67804802D01*
X146573675Y-67800870D01*
X146568249Y-67797936D01*
X146563945Y-67795033D01*
X146518656Y-67740357D01*
X146510116Y-67669876D01*
X146541036Y-67605967D01*
X146556831Y-67591285D01*
X146700991Y-67478655D01*
X146705847Y-67474861D01*
X146835078Y-67325145D01*
X146932769Y-67153179D01*
X146995197Y-66965513D01*
X147019985Y-66769295D01*
X147020380Y-66741000D01*
X147002416Y-66557795D01*
X147015675Y-66488048D01*
X147064538Y-66436541D01*
X147127815Y-66419500D01*
X152966581Y-66419500D01*
X153034702Y-66439502D01*
X153081195Y-66493158D01*
X153091299Y-66563432D01*
X153061805Y-66628012D01*
X153058745Y-66631132D01*
X153058747Y-66631134D01*
X152930960Y-66773056D01*
X152835473Y-66938444D01*
X152776458Y-67120072D01*
X152775768Y-67126633D01*
X152775768Y-67126635D01*
X152772978Y-67153179D01*
X152756496Y-67310000D01*
X152757186Y-67316565D01*
X152774851Y-67484635D01*
X152776458Y-67499928D01*
X152778498Y-67506206D01*
X152830022Y-67664780D01*
X152832050Y-67735747D01*
X152799284Y-67792811D01*
X150142500Y-70449595D01*
X150080188Y-70483621D01*
X150053405Y-70486500D01*
X143842763Y-70486500D01*
X143831579Y-70485973D01*
X143824091Y-70484299D01*
X143816168Y-70484548D01*
X143756033Y-70486438D01*
X143752075Y-70486500D01*
X143724144Y-70486500D01*
X143720229Y-70486995D01*
X143720225Y-70486995D01*
X143720167Y-70487003D01*
X143720138Y-70487006D01*
X143708296Y-70487939D01*
X143664110Y-70489327D01*
X143646744Y-70494372D01*
X143644658Y-70494978D01*
X143625306Y-70498986D01*
X143613068Y-70500532D01*
X143613066Y-70500533D01*
X143605203Y-70501526D01*
X143564086Y-70517806D01*
X143552885Y-70521641D01*
X143510406Y-70533982D01*
X143503587Y-70538015D01*
X143503582Y-70538017D01*
X143492971Y-70544293D01*
X143475221Y-70552990D01*
X143456383Y-70560448D01*
X143449965Y-70565111D01*
X143445391Y-70568434D01*
X143378524Y-70592294D01*
X143371328Y-70592500D01*
X143287513Y-70592500D01*
X143281061Y-70593872D01*
X143281056Y-70593872D01*
X143195773Y-70612000D01*
X143100712Y-70632206D01*
X143094682Y-70634891D01*
X143094681Y-70634891D01*
X142932278Y-70707197D01*
X142932276Y-70707198D01*
X142926248Y-70709882D01*
X142771747Y-70822134D01*
X142767326Y-70827044D01*
X142767325Y-70827045D01*
X142732001Y-70866277D01*
X142643960Y-70964056D01*
X142585686Y-71064990D01*
X142564264Y-71102094D01*
X142548473Y-71129444D01*
X142489458Y-71311072D01*
X142488768Y-71317633D01*
X142488768Y-71317635D01*
X142471333Y-71483519D01*
X142469496Y-71501000D01*
X142470186Y-71507565D01*
X142488122Y-71678213D01*
X142489458Y-71690928D01*
X142548473Y-71872556D01*
X142643960Y-72037944D01*
X142648378Y-72042851D01*
X142648379Y-72042852D01*
X142753350Y-72159434D01*
X142771747Y-72179866D01*
X142818753Y-72214018D01*
X142884876Y-72262059D01*
X142926248Y-72292118D01*
X142932276Y-72294802D01*
X142932278Y-72294803D01*
X143094681Y-72367109D01*
X143100712Y-72369794D01*
X143160602Y-72382524D01*
X143281056Y-72408128D01*
X143281061Y-72408128D01*
X143287513Y-72409500D01*
X143478487Y-72409500D01*
X143484939Y-72408128D01*
X143484944Y-72408128D01*
X143605398Y-72382524D01*
X143665288Y-72369794D01*
X143671319Y-72367109D01*
X143833722Y-72294803D01*
X143833724Y-72294802D01*
X143839752Y-72292118D01*
X143881125Y-72262059D01*
X143947247Y-72214018D01*
X143994253Y-72179866D01*
X144012650Y-72159434D01*
X144117621Y-72042852D01*
X144117622Y-72042851D01*
X144122040Y-72037944D01*
X144217527Y-71872556D01*
X144227922Y-71840562D01*
X144267996Y-71781958D01*
X144333393Y-71754321D01*
X144347755Y-71753500D01*
X144851405Y-71753500D01*
X144919526Y-71773502D01*
X144966019Y-71827158D01*
X144976123Y-71897432D01*
X144946629Y-71962012D01*
X144940500Y-71968595D01*
X144895747Y-72013348D01*
X144887461Y-72020888D01*
X144880982Y-72025000D01*
X144875557Y-72030777D01*
X144834357Y-72074651D01*
X144831602Y-72077493D01*
X144811865Y-72097230D01*
X144809385Y-72100427D01*
X144801682Y-72109447D01*
X144771414Y-72141679D01*
X144767595Y-72148625D01*
X144767593Y-72148628D01*
X144761652Y-72159434D01*
X144750801Y-72175953D01*
X144738386Y-72191959D01*
X144735241Y-72199228D01*
X144735238Y-72199232D01*
X144720826Y-72232537D01*
X144715609Y-72243187D01*
X144694305Y-72281940D01*
X144692334Y-72289615D01*
X144692334Y-72289616D01*
X144689267Y-72301562D01*
X144682863Y-72320266D01*
X144674819Y-72338855D01*
X144673580Y-72346678D01*
X144673577Y-72346688D01*
X144667901Y-72382524D01*
X144665495Y-72394144D01*
X144661905Y-72408128D01*
X144654500Y-72436970D01*
X144654500Y-72457224D01*
X144652949Y-72476934D01*
X144649780Y-72496943D01*
X144650526Y-72504835D01*
X144653941Y-72540961D01*
X144654500Y-72552819D01*
X144654500Y-77529476D01*
X144634498Y-77597597D01*
X144622142Y-77613779D01*
X144548960Y-77695056D01*
X144453473Y-77860444D01*
X144394458Y-78042072D01*
X144393768Y-78048633D01*
X144393768Y-78048635D01*
X144392946Y-78056460D01*
X144374496Y-78232000D01*
X144375186Y-78238565D01*
X144392970Y-78407767D01*
X144394458Y-78421928D01*
X144453473Y-78603556D01*
X144548960Y-78768944D01*
X144553378Y-78773851D01*
X144553379Y-78773852D01*
X144634660Y-78864124D01*
X144676747Y-78910866D01*
X144831248Y-79023118D01*
X144837276Y-79025802D01*
X144837278Y-79025803D01*
X144999681Y-79098109D01*
X145005712Y-79100794D01*
X145099113Y-79120647D01*
X145186056Y-79139128D01*
X145186061Y-79139128D01*
X145192513Y-79140500D01*
X145383487Y-79140500D01*
X145389939Y-79139128D01*
X145389944Y-79139128D01*
X145476887Y-79120647D01*
X145570288Y-79100794D01*
X145576319Y-79098109D01*
X145738722Y-79025803D01*
X145738724Y-79025802D01*
X145744752Y-79023118D01*
X145899253Y-78910866D01*
X145941340Y-78864124D01*
X145955061Y-78848885D01*
X192179000Y-78848885D01*
X192183475Y-78864124D01*
X192184865Y-78865329D01*
X192192548Y-78867000D01*
X194164885Y-78867000D01*
X194180124Y-78862525D01*
X194181329Y-78861135D01*
X194183000Y-78853452D01*
X194183000Y-78848885D01*
X194691000Y-78848885D01*
X194695475Y-78864124D01*
X194696865Y-78865329D01*
X194704548Y-78867000D01*
X196676885Y-78867000D01*
X196692124Y-78862525D01*
X196693329Y-78861135D01*
X196695000Y-78853452D01*
X196695000Y-78155370D01*
X196694909Y-78151984D01*
X196692118Y-78100455D01*
X196691045Y-78091811D01*
X196647920Y-77870982D01*
X196645006Y-77860754D01*
X196565636Y-77651260D01*
X196561038Y-77641662D01*
X196447507Y-77448540D01*
X196441354Y-77439851D01*
X196296899Y-77268608D01*
X196289392Y-77261101D01*
X196118149Y-77116646D01*
X196109460Y-77110493D01*
X195916338Y-76996962D01*
X195906740Y-76992364D01*
X195697246Y-76912994D01*
X195687018Y-76910080D01*
X195466189Y-76866955D01*
X195457545Y-76865882D01*
X195406016Y-76863091D01*
X195402630Y-76863000D01*
X194709115Y-76863000D01*
X194693876Y-76867475D01*
X194692671Y-76868865D01*
X194691000Y-76876548D01*
X194691000Y-78848885D01*
X194183000Y-78848885D01*
X194183000Y-76881115D01*
X194178525Y-76865876D01*
X194177135Y-76864671D01*
X194169452Y-76863000D01*
X193471370Y-76863000D01*
X193467984Y-76863091D01*
X193416455Y-76865882D01*
X193407811Y-76866955D01*
X193186982Y-76910080D01*
X193176754Y-76912994D01*
X192967260Y-76992364D01*
X192957662Y-76996962D01*
X192764540Y-77110493D01*
X192755851Y-77116646D01*
X192584608Y-77261101D01*
X192577101Y-77268608D01*
X192432646Y-77439851D01*
X192426493Y-77448540D01*
X192312962Y-77641662D01*
X192308364Y-77651260D01*
X192228994Y-77860754D01*
X192226080Y-77870982D01*
X192182955Y-78091811D01*
X192181882Y-78100455D01*
X192179091Y-78151984D01*
X192179000Y-78155370D01*
X192179000Y-78848885D01*
X145955061Y-78848885D01*
X146022621Y-78773852D01*
X146022622Y-78773851D01*
X146027040Y-78768944D01*
X146122527Y-78603556D01*
X146181542Y-78421928D01*
X146183031Y-78407767D01*
X146200814Y-78238565D01*
X146201504Y-78232000D01*
X146183054Y-78056460D01*
X146182232Y-78048635D01*
X146182232Y-78048633D01*
X146181542Y-78042072D01*
X146122527Y-77860444D01*
X146027040Y-77695056D01*
X145953863Y-77613785D01*
X145923147Y-77549779D01*
X145921500Y-77529476D01*
X145921500Y-72831595D01*
X145941502Y-72763474D01*
X145958405Y-72742499D01*
X146402501Y-72298404D01*
X146464813Y-72264379D01*
X146491596Y-72261500D01*
X150416951Y-72261500D01*
X150428134Y-72262027D01*
X150435627Y-72263702D01*
X150443553Y-72263453D01*
X150443554Y-72263453D01*
X150503704Y-72261562D01*
X150507663Y-72261500D01*
X150535574Y-72261500D01*
X150539509Y-72261003D01*
X150539574Y-72260995D01*
X150551411Y-72260062D01*
X150583669Y-72259048D01*
X150587688Y-72258922D01*
X150595607Y-72258673D01*
X150615061Y-72253021D01*
X150634418Y-72249013D01*
X150646648Y-72247468D01*
X150646649Y-72247468D01*
X150654515Y-72246474D01*
X150661886Y-72243555D01*
X150661888Y-72243555D01*
X150695630Y-72230196D01*
X150706860Y-72226351D01*
X150741701Y-72216229D01*
X150741702Y-72216229D01*
X150749311Y-72214018D01*
X150756130Y-72209985D01*
X150756135Y-72209983D01*
X150766746Y-72203707D01*
X150784494Y-72195012D01*
X150803335Y-72187552D01*
X150839105Y-72161564D01*
X150849025Y-72155048D01*
X150880253Y-72136580D01*
X150880256Y-72136578D01*
X150887080Y-72132542D01*
X150901401Y-72118221D01*
X150916435Y-72105380D01*
X150926412Y-72098131D01*
X150932825Y-72093472D01*
X150961016Y-72059395D01*
X150969006Y-72050616D01*
X154784483Y-68235139D01*
X154847380Y-68200988D01*
X154951791Y-68178794D01*
X154957822Y-68176109D01*
X155120225Y-68103803D01*
X155120227Y-68103802D01*
X155126255Y-68101118D01*
X155280756Y-67988866D01*
X155285178Y-67983954D01*
X155290080Y-67979541D01*
X155290957Y-67980516D01*
X155345382Y-67946990D01*
X155416366Y-67948346D01*
X155467660Y-67979447D01*
X161726233Y-74238021D01*
X161760259Y-74300333D01*
X161755194Y-74371148D01*
X161712647Y-74427984D01*
X161666285Y-74449698D01*
X161659118Y-74451402D01*
X161651268Y-74452255D01*
X161514879Y-74503385D01*
X161398323Y-74590739D01*
X161310969Y-74707295D01*
X161259839Y-74843684D01*
X161253084Y-74905866D01*
X161253084Y-78002134D01*
X161259839Y-78064316D01*
X161310969Y-78200705D01*
X161398323Y-78317261D01*
X161514879Y-78404615D01*
X161651268Y-78455745D01*
X161713450Y-78462500D01*
X164809718Y-78462500D01*
X164871900Y-78455745D01*
X165008289Y-78404615D01*
X165124845Y-78317261D01*
X165212199Y-78200705D01*
X165263329Y-78064316D01*
X165265574Y-78043654D01*
X182527202Y-78043654D01*
X182534257Y-78053627D01*
X182565263Y-78079551D01*
X182572182Y-78084579D01*
X182796856Y-78225515D01*
X182804391Y-78229556D01*
X183046104Y-78338694D01*
X183054135Y-78341680D01*
X183308416Y-78417002D01*
X183316768Y-78418869D01*
X183578924Y-78458984D01*
X183587458Y-78459700D01*
X183852629Y-78463867D01*
X183861180Y-78463418D01*
X184124467Y-78431557D01*
X184132868Y-78429955D01*
X184389408Y-78362653D01*
X184397510Y-78359926D01*
X184642533Y-78258434D01*
X184650201Y-78254628D01*
X184879182Y-78120822D01*
X184886263Y-78116009D01*
X184966239Y-78053301D01*
X184974709Y-78041442D01*
X184968192Y-78029818D01*
X183764396Y-76826022D01*
X183750452Y-76818408D01*
X183748619Y-76818539D01*
X183742004Y-76822790D01*
X182534494Y-78030300D01*
X182527202Y-78043654D01*
X165265574Y-78043654D01*
X165270084Y-78002134D01*
X165270084Y-76437204D01*
X181739249Y-76437204D01*
X181754516Y-76701969D01*
X181755589Y-76710470D01*
X181806649Y-76970722D01*
X181808860Y-76978974D01*
X181894768Y-77229894D01*
X181898083Y-77237779D01*
X182017248Y-77474713D01*
X182021604Y-77482079D01*
X182150931Y-77670250D01*
X182161185Y-77678594D01*
X182174926Y-77671448D01*
X183379562Y-76466812D01*
X183385940Y-76455132D01*
X184115992Y-76455132D01*
X184116123Y-76456965D01*
X184120374Y-76463580D01*
X185327314Y-77670520D01*
X185339523Y-77677187D01*
X185351023Y-77668497D01*
X185448415Y-77535913D01*
X185453002Y-77528685D01*
X185579546Y-77295621D01*
X185583114Y-77287827D01*
X185676855Y-77039750D01*
X185679332Y-77031544D01*
X185738538Y-76773038D01*
X185739878Y-76764577D01*
X185763615Y-76498616D01*
X185763861Y-76493677D01*
X185764250Y-76456485D01*
X185764107Y-76451519D01*
X185745946Y-76185123D01*
X185744785Y-76176649D01*
X185691003Y-75916944D01*
X185688704Y-75908709D01*
X185600172Y-75658705D01*
X185596775Y-75650854D01*
X185475134Y-75415178D01*
X185470706Y-75407866D01*
X185351615Y-75238417D01*
X185341093Y-75230037D01*
X185327705Y-75237089D01*
X184123606Y-76441188D01*
X184115992Y-76455132D01*
X183385940Y-76455132D01*
X183387176Y-76452868D01*
X183387045Y-76451035D01*
X183382794Y-76444420D01*
X182175398Y-75237024D01*
X182163388Y-75230466D01*
X182151648Y-75239434D01*
X182043519Y-75389911D01*
X182039002Y-75397196D01*
X181914909Y-75631567D01*
X181911423Y-75639395D01*
X181820284Y-75888446D01*
X181817895Y-75896670D01*
X181761396Y-76155795D01*
X181760147Y-76164250D01*
X181739338Y-76428653D01*
X181739249Y-76437204D01*
X165270084Y-76437204D01*
X165270084Y-74905866D01*
X165265808Y-74866500D01*
X182528168Y-74866500D01*
X182534564Y-74877770D01*
X183738772Y-76081978D01*
X183752716Y-76089592D01*
X183754549Y-76089461D01*
X183761164Y-76085210D01*
X184968188Y-74878186D01*
X184975379Y-74865017D01*
X184968057Y-74854780D01*
X184920817Y-74816115D01*
X184913845Y-74811160D01*
X184687706Y-74672582D01*
X184680136Y-74668624D01*
X184437288Y-74562022D01*
X184429228Y-74559120D01*
X184174176Y-74486467D01*
X184165798Y-74484685D01*
X183903240Y-74447318D01*
X183894695Y-74446691D01*
X183629492Y-74445302D01*
X183620958Y-74445839D01*
X183358017Y-74480456D01*
X183349619Y-74482149D01*
X183093822Y-74552127D01*
X183085727Y-74554946D01*
X182841783Y-74658997D01*
X182834161Y-74662881D01*
X182606597Y-74799075D01*
X182599565Y-74803962D01*
X182536637Y-74854377D01*
X182528168Y-74866500D01*
X165265808Y-74866500D01*
X165263329Y-74843684D01*
X165212199Y-74707295D01*
X165124845Y-74590739D01*
X165008289Y-74503385D01*
X164871900Y-74452255D01*
X164809718Y-74445500D01*
X163778633Y-74445500D01*
X163710512Y-74425498D01*
X163698317Y-74416584D01*
X163692979Y-74412168D01*
X163684200Y-74404179D01*
X157109691Y-67829669D01*
X159016001Y-67829669D01*
X159016371Y-67836490D01*
X159021895Y-67887352D01*
X159025521Y-67902604D01*
X159070676Y-68023054D01*
X159079214Y-68038649D01*
X159155715Y-68140724D01*
X159168276Y-68153285D01*
X159270351Y-68229786D01*
X159285946Y-68238324D01*
X159406394Y-68283478D01*
X159421649Y-68287105D01*
X159472514Y-68292631D01*
X159479328Y-68293000D01*
X160001885Y-68293000D01*
X160017124Y-68288525D01*
X160018329Y-68287135D01*
X160020000Y-68279452D01*
X160020000Y-68274884D01*
X160528000Y-68274884D01*
X160532475Y-68290123D01*
X160533865Y-68291328D01*
X160541548Y-68292999D01*
X161068669Y-68292999D01*
X161075490Y-68292629D01*
X161126352Y-68287105D01*
X161141604Y-68283479D01*
X161262054Y-68238324D01*
X161277649Y-68229786D01*
X161379724Y-68153285D01*
X161392285Y-68140724D01*
X161468786Y-68038649D01*
X161477324Y-68023054D01*
X161522478Y-67902606D01*
X161526105Y-67887351D01*
X161531631Y-67836486D01*
X161532000Y-67829672D01*
X161532000Y-67797862D01*
X161552002Y-67729741D01*
X161605658Y-67683248D01*
X161675932Y-67673144D01*
X161740512Y-67702638D01*
X161761213Y-67725591D01*
X161811818Y-67797862D01*
X161846251Y-67847038D01*
X162001962Y-68002749D01*
X162182346Y-68129056D01*
X162381924Y-68222120D01*
X162594629Y-68279115D01*
X162814000Y-68298307D01*
X163033371Y-68279115D01*
X163246076Y-68222120D01*
X163445654Y-68129056D01*
X163626038Y-68002749D01*
X163781749Y-67847038D01*
X163814077Y-67800870D01*
X163904899Y-67671162D01*
X163904900Y-67671160D01*
X163908056Y-67666653D01*
X163910379Y-67661671D01*
X163910382Y-67661666D01*
X163969805Y-67534231D01*
X164016722Y-67480946D01*
X164084999Y-67461485D01*
X164152959Y-67482027D01*
X164198195Y-67534231D01*
X164257618Y-67661666D01*
X164257621Y-67661671D01*
X164259944Y-67666653D01*
X164263100Y-67671160D01*
X164263101Y-67671162D01*
X164353924Y-67800870D01*
X164386251Y-67847038D01*
X164541962Y-68002749D01*
X164722346Y-68129056D01*
X164921924Y-68222120D01*
X165134629Y-68279115D01*
X165354000Y-68298307D01*
X165573371Y-68279115D01*
X165786076Y-68222120D01*
X165985654Y-68129056D01*
X166166038Y-68002749D01*
X166321749Y-67847038D01*
X166354077Y-67800870D01*
X166444899Y-67671162D01*
X166444900Y-67671160D01*
X166448056Y-67666653D01*
X166450379Y-67661671D01*
X166450382Y-67661666D01*
X166532932Y-67484635D01*
X166541120Y-67467076D01*
X166598115Y-67254371D01*
X166617307Y-67035000D01*
X166598115Y-66815629D01*
X166541120Y-66602924D01*
X166497585Y-66509562D01*
X166450382Y-66408334D01*
X166450379Y-66408329D01*
X166448056Y-66403347D01*
X166444899Y-66398838D01*
X166324908Y-66227473D01*
X166324906Y-66227470D01*
X166321749Y-66222962D01*
X166166038Y-66067251D01*
X166161290Y-66063926D01*
X166086759Y-66011739D01*
X165985654Y-65940944D01*
X165786076Y-65847880D01*
X165573371Y-65790885D01*
X165354000Y-65771693D01*
X165134629Y-65790885D01*
X164921924Y-65847880D01*
X164828562Y-65891415D01*
X164727334Y-65938618D01*
X164727329Y-65938621D01*
X164722347Y-65940944D01*
X164717840Y-65944100D01*
X164717838Y-65944101D01*
X164546473Y-66064092D01*
X164546470Y-66064094D01*
X164541962Y-66067251D01*
X164386251Y-66222962D01*
X164383094Y-66227470D01*
X164383092Y-66227473D01*
X164263101Y-66398838D01*
X164259944Y-66403347D01*
X164257621Y-66408329D01*
X164257618Y-66408334D01*
X164198195Y-66535769D01*
X164151278Y-66589054D01*
X164083001Y-66608515D01*
X164015041Y-66587973D01*
X163969805Y-66535769D01*
X163910382Y-66408334D01*
X163910379Y-66408329D01*
X163908056Y-66403347D01*
X163904899Y-66398838D01*
X163784908Y-66227473D01*
X163784906Y-66227470D01*
X163781749Y-66222962D01*
X163626038Y-66067251D01*
X163621290Y-66063926D01*
X163546759Y-66011739D01*
X163445654Y-65940944D01*
X163246076Y-65847880D01*
X163033371Y-65790885D01*
X162814000Y-65771693D01*
X162594629Y-65790885D01*
X162381924Y-65847880D01*
X162288562Y-65891415D01*
X162187334Y-65938618D01*
X162187329Y-65938621D01*
X162182347Y-65940944D01*
X162177840Y-65944100D01*
X162177838Y-65944101D01*
X162006473Y-66064092D01*
X162006470Y-66064094D01*
X162001962Y-66067251D01*
X161846251Y-66222962D01*
X161843094Y-66227470D01*
X161843092Y-66227473D01*
X161761212Y-66344410D01*
X161705755Y-66388738D01*
X161635135Y-66396047D01*
X161571775Y-66364016D01*
X161535790Y-66302815D01*
X161531999Y-66272139D01*
X161531999Y-66240331D01*
X161531629Y-66233510D01*
X161526105Y-66182648D01*
X161522479Y-66167396D01*
X161477324Y-66046946D01*
X161468786Y-66031351D01*
X161392285Y-65929276D01*
X161379724Y-65916715D01*
X161277649Y-65840214D01*
X161262054Y-65831676D01*
X161141606Y-65786522D01*
X161126351Y-65782895D01*
X161075486Y-65777369D01*
X161068672Y-65777000D01*
X160546115Y-65777000D01*
X160530876Y-65781475D01*
X160529671Y-65782865D01*
X160528000Y-65790548D01*
X160528000Y-68274884D01*
X160020000Y-68274884D01*
X160020000Y-67307115D01*
X160015525Y-67291876D01*
X160014135Y-67290671D01*
X160006452Y-67289000D01*
X159034116Y-67289000D01*
X159018877Y-67293475D01*
X159017672Y-67294865D01*
X159016001Y-67302548D01*
X159016001Y-67829669D01*
X157109691Y-67829669D01*
X156042907Y-66762885D01*
X159016000Y-66762885D01*
X159020475Y-66778124D01*
X159021865Y-66779329D01*
X159029548Y-66781000D01*
X160001885Y-66781000D01*
X160017124Y-66776525D01*
X160018329Y-66775135D01*
X160020000Y-66767452D01*
X160020000Y-65795116D01*
X160015525Y-65779877D01*
X160014135Y-65778672D01*
X160006452Y-65777001D01*
X159479331Y-65777001D01*
X159472510Y-65777371D01*
X159421648Y-65782895D01*
X159406396Y-65786521D01*
X159285946Y-65831676D01*
X159270351Y-65840214D01*
X159168276Y-65916715D01*
X159155715Y-65929276D01*
X159079214Y-66031351D01*
X159070676Y-66046946D01*
X159025522Y-66167394D01*
X159021895Y-66182649D01*
X159016369Y-66233514D01*
X159016000Y-66240328D01*
X159016000Y-66762885D01*
X156042907Y-66762885D01*
X154673769Y-65393747D01*
X154666229Y-65385461D01*
X154662117Y-65378982D01*
X154612465Y-65332356D01*
X154609624Y-65329602D01*
X154589887Y-65309865D01*
X154586690Y-65307385D01*
X154577668Y-65299680D01*
X154564239Y-65287069D01*
X154545438Y-65269414D01*
X154538492Y-65265595D01*
X154538489Y-65265593D01*
X154527683Y-65259652D01*
X154511164Y-65248801D01*
X154506372Y-65245084D01*
X154495158Y-65236386D01*
X154487889Y-65233241D01*
X154487885Y-65233238D01*
X154454580Y-65218826D01*
X154443930Y-65213609D01*
X154405177Y-65192305D01*
X154385554Y-65187267D01*
X154366851Y-65180863D01*
X154355537Y-65175967D01*
X154355536Y-65175967D01*
X154348262Y-65172819D01*
X154340439Y-65171580D01*
X154340429Y-65171577D01*
X154304593Y-65165901D01*
X154292973Y-65163495D01*
X154257828Y-65154472D01*
X154257827Y-65154472D01*
X154250147Y-65152500D01*
X154229893Y-65152500D01*
X154210182Y-65150949D01*
X154198003Y-65149020D01*
X154190174Y-65147780D01*
X154160903Y-65150547D01*
X154146156Y-65151941D01*
X154134298Y-65152500D01*
X152432186Y-65152500D01*
X152364065Y-65132498D01*
X152317572Y-65078842D01*
X152307468Y-65008568D01*
X152317991Y-64973250D01*
X152394633Y-64808892D01*
X152394634Y-64808891D01*
X152396956Y-64803910D01*
X152400993Y-64788846D01*
X152450262Y-64604970D01*
X152450262Y-64604968D01*
X152451686Y-64599655D01*
X152470116Y-64389000D01*
X152451686Y-64178345D01*
X152414110Y-64038110D01*
X152415800Y-63967135D01*
X152455594Y-63908339D01*
X152520858Y-63880391D01*
X152535817Y-63879500D01*
X155312183Y-63879500D01*
X155380304Y-63899502D01*
X155426797Y-63953158D01*
X155436901Y-64023432D01*
X155433892Y-64038102D01*
X155396314Y-64178345D01*
X155377884Y-64389000D01*
X155396314Y-64599655D01*
X155397738Y-64604968D01*
X155397738Y-64604970D01*
X155447008Y-64788846D01*
X155451044Y-64803910D01*
X155453366Y-64808891D01*
X155453367Y-64808892D01*
X155530009Y-64973250D01*
X155540411Y-64995558D01*
X155661699Y-65168776D01*
X155811224Y-65318301D01*
X155984442Y-65439589D01*
X155989420Y-65441910D01*
X155989423Y-65441912D01*
X156011295Y-65452111D01*
X156176090Y-65528956D01*
X156181398Y-65530378D01*
X156181400Y-65530379D01*
X156375030Y-65582262D01*
X156375032Y-65582262D01*
X156380345Y-65583686D01*
X156591000Y-65602116D01*
X156801655Y-65583686D01*
X156806968Y-65582262D01*
X156806970Y-65582262D01*
X157000600Y-65530379D01*
X157000602Y-65530378D01*
X157005910Y-65528956D01*
X157170705Y-65452111D01*
X157192577Y-65441912D01*
X157192580Y-65441910D01*
X157197558Y-65439589D01*
X157370776Y-65318301D01*
X157520301Y-65168776D01*
X157641589Y-64995558D01*
X157651992Y-64973250D01*
X157728633Y-64808892D01*
X157728634Y-64808891D01*
X157730956Y-64803910D01*
X157734993Y-64788846D01*
X157784262Y-64604970D01*
X157784262Y-64604968D01*
X157785686Y-64599655D01*
X157804116Y-64389000D01*
X157785686Y-64178345D01*
X157748110Y-64038110D01*
X157749800Y-63967135D01*
X157789594Y-63908339D01*
X157854858Y-63880391D01*
X157869817Y-63879500D01*
X169325233Y-63879500D01*
X169336416Y-63880027D01*
X169343909Y-63881702D01*
X169351835Y-63881453D01*
X169351836Y-63881453D01*
X169411986Y-63879562D01*
X169415945Y-63879500D01*
X169443856Y-63879500D01*
X169447791Y-63879003D01*
X169447856Y-63878995D01*
X169459693Y-63878062D01*
X169491951Y-63877048D01*
X169495970Y-63876922D01*
X169503889Y-63876673D01*
X169523343Y-63871021D01*
X169542700Y-63867013D01*
X169554930Y-63865468D01*
X169554931Y-63865468D01*
X169562797Y-63864474D01*
X169570168Y-63861555D01*
X169570170Y-63861555D01*
X169603912Y-63848196D01*
X169615142Y-63844351D01*
X169649983Y-63834229D01*
X169649984Y-63834229D01*
X169657593Y-63832018D01*
X169664412Y-63827985D01*
X169664417Y-63827983D01*
X169675028Y-63821707D01*
X169692776Y-63813012D01*
X169711617Y-63805552D01*
X169731987Y-63790753D01*
X169747387Y-63779564D01*
X169757307Y-63773048D01*
X169788535Y-63754580D01*
X169788538Y-63754578D01*
X169795362Y-63750542D01*
X169809683Y-63736221D01*
X169824717Y-63723380D01*
X169826432Y-63722134D01*
X169841107Y-63711472D01*
X169869298Y-63677395D01*
X169877288Y-63668616D01*
X170597836Y-62948068D01*
X170660148Y-62914042D01*
X170687746Y-62911166D01*
X172223819Y-62921102D01*
X172291809Y-62941544D01*
X172312099Y-62958004D01*
X172992348Y-63638253D01*
X172999888Y-63646539D01*
X173004000Y-63653018D01*
X173009777Y-63658443D01*
X173053651Y-63699643D01*
X173056493Y-63702398D01*
X173076230Y-63722135D01*
X173079427Y-63724615D01*
X173088447Y-63732318D01*
X173120679Y-63762586D01*
X173127625Y-63766405D01*
X173127628Y-63766407D01*
X173138434Y-63772348D01*
X173154953Y-63783199D01*
X173170959Y-63795614D01*
X173178228Y-63798759D01*
X173178232Y-63798762D01*
X173211537Y-63813174D01*
X173222186Y-63818390D01*
X173260940Y-63839695D01*
X173268615Y-63841666D01*
X173268616Y-63841666D01*
X173280562Y-63844733D01*
X173299266Y-63851137D01*
X173299269Y-63851138D01*
X173317855Y-63859181D01*
X173325678Y-63860420D01*
X173325688Y-63860423D01*
X173361524Y-63866099D01*
X173373144Y-63868505D01*
X173404959Y-63876673D01*
X173415970Y-63879500D01*
X173436224Y-63879500D01*
X173455934Y-63881051D01*
X173475943Y-63884220D01*
X173483835Y-63883474D01*
X173502580Y-63881702D01*
X173519962Y-63880059D01*
X173531819Y-63879500D01*
X176578233Y-63879500D01*
X176589416Y-63880027D01*
X176596909Y-63881702D01*
X176604835Y-63881453D01*
X176604836Y-63881453D01*
X176664986Y-63879562D01*
X176668945Y-63879500D01*
X176696856Y-63879500D01*
X176700791Y-63879003D01*
X176700856Y-63878995D01*
X176712693Y-63878062D01*
X176744951Y-63877048D01*
X176748970Y-63876922D01*
X176756889Y-63876673D01*
X176776343Y-63871021D01*
X176795700Y-63867013D01*
X176807930Y-63865468D01*
X176807931Y-63865468D01*
X176815797Y-63864474D01*
X176823168Y-63861555D01*
X176823170Y-63861555D01*
X176856912Y-63848196D01*
X176868142Y-63844351D01*
X176902983Y-63834229D01*
X176902984Y-63834229D01*
X176910593Y-63832018D01*
X176917412Y-63827985D01*
X176917417Y-63827983D01*
X176928028Y-63821707D01*
X176945776Y-63813012D01*
X176964617Y-63805552D01*
X176984987Y-63790753D01*
X177000387Y-63779564D01*
X177010307Y-63773048D01*
X177041535Y-63754580D01*
X177041538Y-63754578D01*
X177048362Y-63750542D01*
X177062683Y-63736221D01*
X177077717Y-63723380D01*
X177079432Y-63722134D01*
X177094107Y-63711472D01*
X177122298Y-63677395D01*
X177130288Y-63668616D01*
X177615758Y-63183146D01*
X177624048Y-63175602D01*
X177630529Y-63171489D01*
X177642263Y-63158994D01*
X177676395Y-63122646D01*
X177677170Y-63121821D01*
X177679924Y-63118980D01*
X177699646Y-63099258D01*
X177702123Y-63096065D01*
X177709828Y-63087044D01*
X177734670Y-63060589D01*
X177740097Y-63054810D01*
X177743918Y-63047860D01*
X177749857Y-63037057D01*
X177760711Y-63020533D01*
X177771667Y-63006408D01*
X177829222Y-62964840D01*
X177872040Y-62957635D01*
X178666775Y-62962776D01*
X178676940Y-62963252D01*
X178683521Y-62963828D01*
X178683525Y-62963828D01*
X178689000Y-62964307D01*
X178697888Y-62963529D01*
X178709665Y-62963053D01*
X179639217Y-62969066D01*
X179707207Y-62989508D01*
X179727497Y-63005968D01*
X180359776Y-63638247D01*
X180367320Y-63646537D01*
X180371433Y-63653018D01*
X180377210Y-63658443D01*
X180421100Y-63699658D01*
X180423927Y-63702398D01*
X180443664Y-63722135D01*
X180446785Y-63724556D01*
X180446792Y-63724562D01*
X180446857Y-63724612D01*
X180455878Y-63732317D01*
X180488112Y-63762586D01*
X180495060Y-63766405D01*
X180495062Y-63766407D01*
X180505865Y-63772346D01*
X180522392Y-63783202D01*
X180532131Y-63790757D01*
X180532133Y-63790758D01*
X180538393Y-63795614D01*
X180578973Y-63813174D01*
X180589621Y-63818391D01*
X180614409Y-63832018D01*
X180628373Y-63839695D01*
X180636049Y-63841666D01*
X180636052Y-63841667D01*
X180647995Y-63844733D01*
X180666699Y-63851137D01*
X180666702Y-63851138D01*
X180685288Y-63859181D01*
X180693111Y-63860420D01*
X180693121Y-63860423D01*
X180728957Y-63866099D01*
X180740577Y-63868505D01*
X180772392Y-63876673D01*
X180783403Y-63879500D01*
X180803657Y-63879500D01*
X180823367Y-63881051D01*
X180843376Y-63884220D01*
X180851268Y-63883474D01*
X180870013Y-63881702D01*
X180887395Y-63880059D01*
X180899252Y-63879500D01*
X193963233Y-63879500D01*
X193974416Y-63880027D01*
X193981909Y-63881702D01*
X193989835Y-63881453D01*
X193989836Y-63881453D01*
X194049986Y-63879562D01*
X194053945Y-63879500D01*
X194081856Y-63879500D01*
X194085791Y-63879003D01*
X194085856Y-63878995D01*
X194097693Y-63878062D01*
X194129951Y-63877048D01*
X194133970Y-63876922D01*
X194141889Y-63876673D01*
X194161343Y-63871021D01*
X194180700Y-63867013D01*
X194192930Y-63865468D01*
X194192931Y-63865468D01*
X194200797Y-63864474D01*
X194208168Y-63861555D01*
X194208170Y-63861555D01*
X194241912Y-63848196D01*
X194253142Y-63844351D01*
X194287983Y-63834229D01*
X194287984Y-63834229D01*
X194295593Y-63832018D01*
X194302412Y-63827985D01*
X194302417Y-63827983D01*
X194313028Y-63821707D01*
X194330776Y-63813012D01*
X194349617Y-63805552D01*
X194369987Y-63790753D01*
X194385387Y-63779564D01*
X194395307Y-63773048D01*
X194426535Y-63754580D01*
X194426538Y-63754578D01*
X194433362Y-63750542D01*
X194447683Y-63736221D01*
X194462717Y-63723380D01*
X194464432Y-63722134D01*
X194479107Y-63711472D01*
X194507298Y-63677395D01*
X194515288Y-63668616D01*
X195077495Y-63106409D01*
X195139807Y-63072383D01*
X195167404Y-63069507D01*
X200103827Y-63101437D01*
X200171816Y-63121879D01*
X200217961Y-63175834D01*
X200229011Y-63227434D01*
X200229011Y-69089705D01*
X200209009Y-69157826D01*
X200155353Y-69204319D01*
X200085079Y-69214423D01*
X200054794Y-69206114D01*
X199979172Y-69174791D01*
X199979169Y-69174790D01*
X199974594Y-69172895D01*
X199894391Y-69153640D01*
X199748524Y-69118620D01*
X199748518Y-69118619D01*
X199743711Y-69117465D01*
X199507000Y-69098835D01*
X199270289Y-69117465D01*
X199265482Y-69118619D01*
X199265476Y-69118620D01*
X199119609Y-69153640D01*
X199039406Y-69172895D01*
X199034835Y-69174788D01*
X199034833Y-69174789D01*
X198824611Y-69261865D01*
X198824607Y-69261867D01*
X198820037Y-69263760D01*
X198815817Y-69266346D01*
X198621798Y-69385241D01*
X198621792Y-69385245D01*
X198617584Y-69387824D01*
X198437031Y-69542031D01*
X198282824Y-69722584D01*
X198280245Y-69726792D01*
X198280241Y-69726798D01*
X198198565Y-69860081D01*
X198158760Y-69925037D01*
X198156867Y-69929607D01*
X198156865Y-69929611D01*
X198072457Y-70133392D01*
X198067895Y-70144406D01*
X198053953Y-70202477D01*
X198020804Y-70340555D01*
X198012465Y-70375289D01*
X197993835Y-70612000D01*
X198012465Y-70848711D01*
X198013619Y-70853518D01*
X198013620Y-70853524D01*
X198043329Y-70977271D01*
X198067895Y-71079594D01*
X198069788Y-71084165D01*
X198069789Y-71084167D01*
X198154220Y-71288002D01*
X198158760Y-71298963D01*
X198161346Y-71303183D01*
X198280241Y-71497202D01*
X198280245Y-71497208D01*
X198282824Y-71501416D01*
X198437031Y-71681969D01*
X198617584Y-71836176D01*
X198621792Y-71838755D01*
X198621798Y-71838759D01*
X198676950Y-71872556D01*
X198820037Y-71960240D01*
X198824607Y-71962133D01*
X198824611Y-71962135D01*
X199034833Y-72049211D01*
X199039406Y-72051105D01*
X199087349Y-72062615D01*
X199265476Y-72105380D01*
X199265482Y-72105381D01*
X199270289Y-72106535D01*
X199507000Y-72125165D01*
X199743711Y-72106535D01*
X199748518Y-72105381D01*
X199748524Y-72105380D01*
X199926651Y-72062615D01*
X199974594Y-72051105D01*
X199979169Y-72049210D01*
X199979172Y-72049209D01*
X200054794Y-72017886D01*
X200125383Y-72010297D01*
X200188870Y-72042077D01*
X200225097Y-72103135D01*
X200229011Y-72134295D01*
X200229011Y-76092917D01*
X200209009Y-76161038D01*
X200155353Y-76207531D01*
X200085079Y-76217635D01*
X200020499Y-76188141D01*
X200013916Y-76182012D01*
X197094089Y-73262184D01*
X194051652Y-70219747D01*
X194044112Y-70211461D01*
X194040000Y-70204982D01*
X193990348Y-70158356D01*
X193987507Y-70155602D01*
X193967770Y-70135865D01*
X193964573Y-70133385D01*
X193955551Y-70125680D01*
X193952544Y-70122856D01*
X193923321Y-70095414D01*
X193916375Y-70091595D01*
X193916372Y-70091593D01*
X193905566Y-70085652D01*
X193889047Y-70074801D01*
X193883048Y-70070148D01*
X193873041Y-70062386D01*
X193865772Y-70059241D01*
X193865768Y-70059238D01*
X193832463Y-70044826D01*
X193821813Y-70039609D01*
X193783060Y-70018305D01*
X193763437Y-70013267D01*
X193744734Y-70006863D01*
X193733420Y-70001967D01*
X193733419Y-70001967D01*
X193726145Y-69998819D01*
X193718322Y-69997580D01*
X193718312Y-69997577D01*
X193682476Y-69991901D01*
X193670856Y-69989495D01*
X193635711Y-69980472D01*
X193635710Y-69980472D01*
X193628030Y-69978500D01*
X193607776Y-69978500D01*
X193588065Y-69976949D01*
X193575886Y-69975020D01*
X193568057Y-69973780D01*
X193560164Y-69974526D01*
X193560160Y-69974526D01*
X193553354Y-69975169D01*
X193483653Y-69961664D01*
X193432319Y-69912621D01*
X193415500Y-69849728D01*
X193415500Y-69563866D01*
X193408745Y-69501684D01*
X193357615Y-69365295D01*
X193270261Y-69248739D01*
X193153705Y-69161385D01*
X193017316Y-69110255D01*
X192955134Y-69103500D01*
X190858866Y-69103500D01*
X190796684Y-69110255D01*
X190660295Y-69161385D01*
X190543739Y-69248739D01*
X190456385Y-69365295D01*
X190405255Y-69501684D01*
X190398500Y-69563866D01*
X190398500Y-71660134D01*
X190405255Y-71722316D01*
X190456385Y-71858705D01*
X190543739Y-71975261D01*
X190660295Y-72062615D01*
X190796684Y-72113745D01*
X190858866Y-72120500D01*
X192955134Y-72120500D01*
X193017316Y-72113745D01*
X193153705Y-72062615D01*
X193270261Y-71975261D01*
X193357615Y-71858705D01*
X193408745Y-71722316D01*
X193414999Y-71664748D01*
X193442241Y-71599186D01*
X193500604Y-71558760D01*
X193571558Y-71556305D01*
X193629357Y-71589261D01*
X200192106Y-78152010D01*
X200226132Y-78214322D01*
X200229011Y-78241105D01*
X200229011Y-89144895D01*
X200209009Y-89213016D01*
X200192106Y-89233990D01*
X199687435Y-89738661D01*
X199625123Y-89772687D01*
X199597853Y-89775565D01*
X199107022Y-89773668D01*
X198706933Y-89772121D01*
X198638890Y-89751856D01*
X198592605Y-89698021D01*
X198582773Y-89627708D01*
X198613784Y-89561812D01*
X198669141Y-89500332D01*
X198669142Y-89500331D01*
X198673560Y-89495424D01*
X198769047Y-89330036D01*
X198828062Y-89148408D01*
X198831405Y-89116606D01*
X198847334Y-88965045D01*
X198848024Y-88958480D01*
X198839949Y-88881652D01*
X198828752Y-88775115D01*
X198828752Y-88775113D01*
X198828062Y-88768552D01*
X198769047Y-88586924D01*
X198762374Y-88575365D01*
X198709606Y-88483970D01*
X198673560Y-88421536D01*
X198638824Y-88382957D01*
X198550195Y-88284525D01*
X198550194Y-88284524D01*
X198545773Y-88279614D01*
X198427015Y-88193331D01*
X198396614Y-88171243D01*
X198396613Y-88171242D01*
X198391272Y-88167362D01*
X198385244Y-88164678D01*
X198385242Y-88164677D01*
X198222839Y-88092371D01*
X198222838Y-88092371D01*
X198216808Y-88089686D01*
X198104900Y-88065899D01*
X198036464Y-88051352D01*
X198036459Y-88051352D01*
X198030007Y-88049980D01*
X197839033Y-88049980D01*
X197832581Y-88051352D01*
X197832576Y-88051352D01*
X197764140Y-88065899D01*
X197652232Y-88089686D01*
X197646202Y-88092371D01*
X197646201Y-88092371D01*
X197483798Y-88164677D01*
X197483796Y-88164678D01*
X197477768Y-88167362D01*
X197472427Y-88171242D01*
X197472426Y-88171243D01*
X197350576Y-88259773D01*
X197323267Y-88279614D01*
X197318852Y-88284517D01*
X197313940Y-88288940D01*
X197312815Y-88287691D01*
X197259506Y-88320531D01*
X197226320Y-88324980D01*
X151097973Y-88324980D01*
X151029852Y-88304978D01*
X150983359Y-88251322D01*
X150973255Y-88181048D01*
X151002749Y-88116468D01*
X151062475Y-88078084D01*
X151081963Y-88074001D01*
X151222288Y-88056025D01*
X151222289Y-88056025D01*
X151227416Y-88055368D01*
X151245375Y-88049980D01*
X151436429Y-87992661D01*
X151436434Y-87992659D01*
X151441384Y-87991174D01*
X151641994Y-87892896D01*
X151823860Y-87763173D01*
X151982096Y-87605489D01*
X151985407Y-87600882D01*
X152109435Y-87428277D01*
X152112453Y-87424077D01*
X152133320Y-87381857D01*
X152209136Y-87228453D01*
X152209137Y-87228451D01*
X152211430Y-87223811D01*
X152270665Y-87028847D01*
X152274865Y-87015023D01*
X152274865Y-87015021D01*
X152276370Y-87010069D01*
X152305529Y-86788590D01*
X152305611Y-86785240D01*
X152307074Y-86725365D01*
X152307074Y-86725361D01*
X152307156Y-86722000D01*
X152288852Y-86499361D01*
X152234431Y-86282702D01*
X152145354Y-86077840D01*
X152043560Y-85920490D01*
X152026822Y-85894617D01*
X152026820Y-85894614D01*
X152024014Y-85890277D01*
X151873670Y-85725051D01*
X151869619Y-85721852D01*
X151869615Y-85721848D01*
X151739557Y-85619134D01*
X189178500Y-85619134D01*
X189185255Y-85681316D01*
X189236385Y-85817705D01*
X189323739Y-85934261D01*
X189440295Y-86021615D01*
X189576684Y-86072745D01*
X189638866Y-86079500D01*
X193235134Y-86079500D01*
X193297316Y-86072745D01*
X193433705Y-86021615D01*
X193550261Y-85934261D01*
X193637615Y-85817705D01*
X193688745Y-85681316D01*
X193695500Y-85619134D01*
X193695500Y-84880961D01*
X195429001Y-84880961D01*
X195429209Y-84886071D01*
X195440082Y-85019767D01*
X195441852Y-85030320D01*
X195494967Y-85237185D01*
X195498701Y-85247731D01*
X195587510Y-85441705D01*
X195593046Y-85451412D01*
X195714803Y-85626597D01*
X195721976Y-85635176D01*
X195872824Y-85786024D01*
X195881403Y-85793197D01*
X196056588Y-85914954D01*
X196066295Y-85920490D01*
X196260269Y-86009299D01*
X196270815Y-86013033D01*
X196477679Y-86066147D01*
X196488234Y-86067918D01*
X196621930Y-86078793D01*
X196627036Y-86079000D01*
X197164885Y-86079000D01*
X197180124Y-86074525D01*
X197181329Y-86073135D01*
X197183000Y-86065452D01*
X197183000Y-86060884D01*
X197691000Y-86060884D01*
X197695475Y-86076123D01*
X197696865Y-86077328D01*
X197704548Y-86078999D01*
X198246961Y-86078999D01*
X198252071Y-86078791D01*
X198385767Y-86067918D01*
X198396320Y-86066148D01*
X198603185Y-86013033D01*
X198613731Y-86009299D01*
X198807705Y-85920490D01*
X198817412Y-85914954D01*
X198992597Y-85793197D01*
X199001176Y-85786024D01*
X199152024Y-85635176D01*
X199159197Y-85626597D01*
X199280954Y-85451412D01*
X199286490Y-85441705D01*
X199375299Y-85247731D01*
X199379033Y-85237185D01*
X199432147Y-85030321D01*
X199433918Y-85019766D01*
X199444793Y-84886070D01*
X199445000Y-84880964D01*
X199445000Y-84093115D01*
X199440525Y-84077876D01*
X199439135Y-84076671D01*
X199431452Y-84075000D01*
X197709115Y-84075000D01*
X197693876Y-84079475D01*
X197692671Y-84080865D01*
X197691000Y-84088548D01*
X197691000Y-86060884D01*
X197183000Y-86060884D01*
X197183000Y-84093115D01*
X197178525Y-84077876D01*
X197177135Y-84076671D01*
X197169452Y-84075000D01*
X195447116Y-84075000D01*
X195431877Y-84079475D01*
X195430672Y-84080865D01*
X195429001Y-84088548D01*
X195429001Y-84880961D01*
X193695500Y-84880961D01*
X193695500Y-83548885D01*
X195429000Y-83548885D01*
X195433475Y-83564124D01*
X195434865Y-83565329D01*
X195442548Y-83567000D01*
X197164885Y-83567000D01*
X197180124Y-83562525D01*
X197181329Y-83561135D01*
X197183000Y-83553452D01*
X197183000Y-83548885D01*
X197691000Y-83548885D01*
X197695475Y-83564124D01*
X197696865Y-83565329D01*
X197704548Y-83567000D01*
X199426884Y-83567000D01*
X199442123Y-83562525D01*
X199443328Y-83561135D01*
X199444999Y-83553452D01*
X199444999Y-82761039D01*
X199444791Y-82755929D01*
X199433918Y-82622233D01*
X199432148Y-82611680D01*
X199379033Y-82404815D01*
X199375299Y-82394269D01*
X199286490Y-82200295D01*
X199280954Y-82190588D01*
X199159197Y-82015403D01*
X199152024Y-82006824D01*
X199001176Y-81855976D01*
X198992597Y-81848803D01*
X198817412Y-81727046D01*
X198807705Y-81721510D01*
X198613731Y-81632701D01*
X198603185Y-81628967D01*
X198396321Y-81575853D01*
X198385766Y-81574082D01*
X198252070Y-81563207D01*
X198246964Y-81563000D01*
X197709115Y-81563000D01*
X197693876Y-81567475D01*
X197692671Y-81568865D01*
X197691000Y-81576548D01*
X197691000Y-83548885D01*
X197183000Y-83548885D01*
X197183000Y-81581116D01*
X197178525Y-81565877D01*
X197177135Y-81564672D01*
X197169452Y-81563001D01*
X196627039Y-81563001D01*
X196621929Y-81563209D01*
X196488233Y-81574082D01*
X196477680Y-81575852D01*
X196270815Y-81628967D01*
X196260269Y-81632701D01*
X196066295Y-81721510D01*
X196056588Y-81727046D01*
X195881403Y-81848803D01*
X195872824Y-81855976D01*
X195721976Y-82006824D01*
X195714803Y-82015403D01*
X195593046Y-82190588D01*
X195587510Y-82200295D01*
X195498701Y-82394269D01*
X195494967Y-82404815D01*
X195441853Y-82611679D01*
X195440082Y-82622234D01*
X195429207Y-82755930D01*
X195429000Y-82761036D01*
X195429000Y-83548885D01*
X193695500Y-83548885D01*
X193695500Y-82022866D01*
X193688745Y-81960684D01*
X193637615Y-81824295D01*
X193550261Y-81707739D01*
X193433705Y-81620385D01*
X193425300Y-81617234D01*
X193422169Y-81615520D01*
X193372023Y-81565262D01*
X193357009Y-81495871D01*
X193381894Y-81429378D01*
X193438778Y-81386895D01*
X193482678Y-81379000D01*
X194164885Y-81379000D01*
X194180124Y-81374525D01*
X194181329Y-81373135D01*
X194183000Y-81365452D01*
X194183000Y-81360885D01*
X194691000Y-81360885D01*
X194695475Y-81376124D01*
X194696865Y-81377329D01*
X194704548Y-81379000D01*
X195402631Y-81379000D01*
X195406016Y-81378909D01*
X195457545Y-81376118D01*
X195466189Y-81375045D01*
X195687018Y-81331920D01*
X195697246Y-81329006D01*
X195906740Y-81249636D01*
X195916338Y-81245038D01*
X196109460Y-81131507D01*
X196118149Y-81125354D01*
X196289392Y-80980899D01*
X196296899Y-80973392D01*
X196441354Y-80802149D01*
X196447507Y-80793460D01*
X196561038Y-80600338D01*
X196565636Y-80590740D01*
X196645006Y-80381246D01*
X196647920Y-80371018D01*
X196691045Y-80150189D01*
X196692118Y-80141545D01*
X196694909Y-80090016D01*
X196695000Y-80086631D01*
X196695000Y-79393115D01*
X196690525Y-79377876D01*
X196689135Y-79376671D01*
X196681452Y-79375000D01*
X194709115Y-79375000D01*
X194693876Y-79379475D01*
X194692671Y-79380865D01*
X194691000Y-79388548D01*
X194691000Y-81360885D01*
X194183000Y-81360885D01*
X194183000Y-79393115D01*
X194178525Y-79377876D01*
X194177135Y-79376671D01*
X194169452Y-79375000D01*
X192197115Y-79375000D01*
X192181876Y-79379475D01*
X192180671Y-79380865D01*
X192179000Y-79388548D01*
X192179000Y-80086631D01*
X192179091Y-80090016D01*
X192181882Y-80141545D01*
X192182955Y-80150189D01*
X192226080Y-80371018D01*
X192228994Y-80381246D01*
X192308364Y-80590740D01*
X192312962Y-80600338D01*
X192426493Y-80793460D01*
X192432646Y-80802149D01*
X192577101Y-80973392D01*
X192584608Y-80980899D01*
X192755851Y-81125354D01*
X192764540Y-81131507D01*
X192957662Y-81245038D01*
X192967260Y-81249636D01*
X193149480Y-81318673D01*
X193206096Y-81361512D01*
X193230564Y-81428159D01*
X193215115Y-81497455D01*
X193164655Y-81547397D01*
X193104840Y-81562500D01*
X189638866Y-81562500D01*
X189576684Y-81569255D01*
X189440295Y-81620385D01*
X189323739Y-81707739D01*
X189236385Y-81824295D01*
X189185255Y-81960684D01*
X189178500Y-82022866D01*
X189178500Y-85619134D01*
X151739557Y-85619134D01*
X151702414Y-85589800D01*
X151702410Y-85589798D01*
X151698359Y-85586598D01*
X151656569Y-85563529D01*
X151606598Y-85513097D01*
X151591826Y-85443654D01*
X151616942Y-85377248D01*
X151644294Y-85350641D01*
X151819328Y-85225792D01*
X151827200Y-85219139D01*
X151978052Y-85068812D01*
X151984730Y-85060965D01*
X152109003Y-84888020D01*
X152114313Y-84879183D01*
X152208670Y-84688267D01*
X152212469Y-84678672D01*
X152274377Y-84474910D01*
X152276555Y-84464837D01*
X152277986Y-84453962D01*
X152275775Y-84439778D01*
X152262617Y-84436000D01*
X150816000Y-84436000D01*
X150747879Y-84415998D01*
X150701386Y-84362342D01*
X150690000Y-84310000D01*
X150690000Y-83909885D01*
X151198000Y-83909885D01*
X151202475Y-83925124D01*
X151203865Y-83926329D01*
X151211548Y-83928000D01*
X152262344Y-83928000D01*
X152275875Y-83924027D01*
X152277180Y-83914947D01*
X152235214Y-83747875D01*
X152231894Y-83738124D01*
X152146972Y-83542814D01*
X152142105Y-83533739D01*
X152026426Y-83354926D01*
X152020136Y-83346757D01*
X151876806Y-83189240D01*
X151869273Y-83182215D01*
X151702139Y-83050222D01*
X151693552Y-83044517D01*
X151507117Y-82941599D01*
X151497705Y-82937369D01*
X151296959Y-82866280D01*
X151286988Y-82863646D01*
X151215837Y-82850972D01*
X151202540Y-82852432D01*
X151198000Y-82866989D01*
X151198000Y-83909885D01*
X150690000Y-83909885D01*
X150690000Y-82865102D01*
X150686082Y-82851758D01*
X150671806Y-82849771D01*
X150633324Y-82855660D01*
X150623288Y-82858051D01*
X150420868Y-82924212D01*
X150411359Y-82928209D01*
X150222463Y-83026542D01*
X150213738Y-83032036D01*
X150043433Y-83159905D01*
X150035726Y-83166748D01*
X149888590Y-83320717D01*
X149882109Y-83328722D01*
X149777498Y-83482074D01*
X149722587Y-83527076D01*
X149652062Y-83535247D01*
X149588315Y-83503993D01*
X149567618Y-83479509D01*
X149486822Y-83354617D01*
X149486820Y-83354614D01*
X149484014Y-83350277D01*
X149333670Y-83185051D01*
X149329619Y-83181852D01*
X149329615Y-83181848D01*
X149162414Y-83049800D01*
X149162410Y-83049798D01*
X149158359Y-83046598D01*
X149122028Y-83026542D01*
X149106136Y-83017769D01*
X148962789Y-82938638D01*
X148957920Y-82936914D01*
X148957916Y-82936912D01*
X148757087Y-82865795D01*
X148757083Y-82865794D01*
X148752212Y-82864069D01*
X148747119Y-82863162D01*
X148747116Y-82863161D01*
X148537373Y-82825800D01*
X148537367Y-82825799D01*
X148532284Y-82824894D01*
X148458452Y-82823992D01*
X148314081Y-82822228D01*
X148314079Y-82822228D01*
X148308911Y-82822165D01*
X148088091Y-82855955D01*
X148075532Y-82860060D01*
X148004568Y-82862210D01*
X147947294Y-82829389D01*
X147733141Y-82615236D01*
X147725601Y-82606950D01*
X147721489Y-82600471D01*
X147671837Y-82553845D01*
X147668996Y-82551091D01*
X147649259Y-82531354D01*
X147646062Y-82528874D01*
X147637040Y-82521169D01*
X147610589Y-82496330D01*
X147604810Y-82490903D01*
X147597864Y-82487084D01*
X147597861Y-82487082D01*
X147587055Y-82481141D01*
X147570536Y-82470290D01*
X147570072Y-82469930D01*
X147554530Y-82457875D01*
X147547261Y-82454730D01*
X147547257Y-82454727D01*
X147513952Y-82440315D01*
X147503302Y-82435098D01*
X147464549Y-82413794D01*
X147444926Y-82408756D01*
X147426223Y-82402352D01*
X147414909Y-82397456D01*
X147414908Y-82397456D01*
X147407634Y-82394308D01*
X147399811Y-82393069D01*
X147399801Y-82393066D01*
X147363965Y-82387390D01*
X147352345Y-82384984D01*
X147317200Y-82375961D01*
X147317199Y-82375961D01*
X147309519Y-82373989D01*
X147289265Y-82373989D01*
X147269554Y-82372438D01*
X147257375Y-82370509D01*
X147249546Y-82369269D01*
X147241654Y-82370015D01*
X147205528Y-82373430D01*
X147193670Y-82373989D01*
X140472112Y-82373989D01*
X140398051Y-82349925D01*
X140289094Y-82270763D01*
X140289093Y-82270762D01*
X140283752Y-82266882D01*
X140277724Y-82264198D01*
X140277722Y-82264197D01*
X140115319Y-82191891D01*
X140115318Y-82191891D01*
X140109288Y-82189206D01*
X140015888Y-82169353D01*
X139928944Y-82150872D01*
X139928939Y-82150872D01*
X139922487Y-82149500D01*
X139731513Y-82149500D01*
X139725061Y-82150872D01*
X139725056Y-82150872D01*
X139638112Y-82169353D01*
X139544712Y-82189206D01*
X139538682Y-82191891D01*
X139538681Y-82191891D01*
X139376278Y-82264197D01*
X139376276Y-82264198D01*
X139370248Y-82266882D01*
X139215747Y-82379134D01*
X139211326Y-82384044D01*
X139211325Y-82384045D01*
X139123900Y-82481141D01*
X139087960Y-82521056D01*
X139057706Y-82573458D01*
X139009066Y-82657705D01*
X138992473Y-82686444D01*
X138933458Y-82868072D01*
X138932768Y-82874633D01*
X138932768Y-82874635D01*
X138927137Y-82928209D01*
X138913496Y-83058000D01*
X138914186Y-83064565D01*
X138931804Y-83232187D01*
X138933458Y-83247928D01*
X138992473Y-83429556D01*
X139087960Y-83594944D01*
X139215747Y-83736866D01*
X139370248Y-83849118D01*
X139376276Y-83851802D01*
X139376278Y-83851803D01*
X139538497Y-83924027D01*
X139544712Y-83926794D01*
X139638112Y-83946647D01*
X139725056Y-83965128D01*
X139725061Y-83965128D01*
X139731513Y-83966500D01*
X139922487Y-83966500D01*
X139928939Y-83965128D01*
X139928944Y-83965128D01*
X140015888Y-83946647D01*
X140109288Y-83926794D01*
X140115503Y-83924027D01*
X140277722Y-83851803D01*
X140277724Y-83851802D01*
X140283752Y-83849118D01*
X140438253Y-83736866D01*
X140487043Y-83682679D01*
X140547489Y-83645439D01*
X140580679Y-83640989D01*
X144438490Y-83640989D01*
X144506611Y-83660991D01*
X144553104Y-83714647D01*
X144563208Y-83784921D01*
X144559907Y-83800661D01*
X144524989Y-83926570D01*
X144501251Y-84148695D01*
X144514110Y-84371715D01*
X144515247Y-84376761D01*
X144515248Y-84376767D01*
X144528597Y-84436000D01*
X144563222Y-84589639D01*
X144565164Y-84594421D01*
X144565165Y-84594425D01*
X144593456Y-84664096D01*
X144600552Y-84734737D01*
X144568330Y-84798000D01*
X144507021Y-84833801D01*
X144476713Y-84837500D01*
X132204500Y-84837500D01*
X132136379Y-84817498D01*
X132089886Y-84763842D01*
X132078500Y-84711500D01*
X132078500Y-74997524D01*
X132098502Y-74929403D01*
X132110858Y-74913221D01*
X132184040Y-74831944D01*
X132279527Y-74666556D01*
X132338542Y-74484928D01*
X132339471Y-74476094D01*
X132357814Y-74301565D01*
X132358504Y-74295000D01*
X132353271Y-74245211D01*
X132339232Y-74111635D01*
X132339232Y-74111633D01*
X132338542Y-74105072D01*
X132279527Y-73923444D01*
X132274075Y-73914000D01*
X132194817Y-73776723D01*
X132184040Y-73758056D01*
X132056253Y-73616134D01*
X131901752Y-73503882D01*
X131895724Y-73501198D01*
X131895722Y-73501197D01*
X131733319Y-73428891D01*
X131733318Y-73428891D01*
X131727288Y-73426206D01*
X131633887Y-73406353D01*
X131546944Y-73387872D01*
X131546939Y-73387872D01*
X131540487Y-73386500D01*
X131349513Y-73386500D01*
X131343061Y-73387872D01*
X131343056Y-73387872D01*
X131256113Y-73406353D01*
X131162712Y-73426206D01*
X131156682Y-73428891D01*
X131156681Y-73428891D01*
X130994278Y-73501197D01*
X130994276Y-73501198D01*
X130988248Y-73503882D01*
X130833747Y-73616134D01*
X130705960Y-73758056D01*
X130695183Y-73776723D01*
X130615926Y-73914000D01*
X130610473Y-73923444D01*
X130551458Y-74105072D01*
X130550768Y-74111633D01*
X130550768Y-74111635D01*
X130536729Y-74245211D01*
X130531496Y-74295000D01*
X130532186Y-74301565D01*
X130550530Y-74476094D01*
X130551458Y-74484928D01*
X130610473Y-74666556D01*
X130705960Y-74831944D01*
X130779137Y-74913215D01*
X130809853Y-74977221D01*
X130811500Y-74997524D01*
X130811500Y-84902405D01*
X130791498Y-84970526D01*
X130774595Y-84991501D01*
X130053999Y-85712096D01*
X129991687Y-85746121D01*
X129964904Y-85749000D01*
X114429566Y-85749000D01*
X114361445Y-85728998D01*
X114322133Y-85688835D01*
X114204759Y-85497298D01*
X114204755Y-85497292D01*
X114202176Y-85493084D01*
X114047969Y-85312531D01*
X113867416Y-85158324D01*
X113863208Y-85155745D01*
X113863202Y-85155741D01*
X113669183Y-85036846D01*
X113664963Y-85034260D01*
X113660393Y-85032367D01*
X113660389Y-85032365D01*
X113450167Y-84945289D01*
X113450165Y-84945288D01*
X113445594Y-84943395D01*
X113353920Y-84921386D01*
X113219524Y-84889120D01*
X113219518Y-84889119D01*
X113214711Y-84887965D01*
X112978000Y-84869335D01*
X112741289Y-84887965D01*
X112736482Y-84889119D01*
X112736476Y-84889120D01*
X112602080Y-84921386D01*
X112510406Y-84943395D01*
X112505835Y-84945288D01*
X112505833Y-84945289D01*
X112295611Y-85032365D01*
X112295607Y-85032367D01*
X112291037Y-85034260D01*
X112286817Y-85036846D01*
X112092798Y-85155741D01*
X112092792Y-85155745D01*
X112088584Y-85158324D01*
X112084830Y-85161531D01*
X112084818Y-85161539D01*
X111966330Y-85262738D01*
X111901541Y-85291769D01*
X111831341Y-85281164D01*
X111778018Y-85234289D01*
X111758500Y-85166927D01*
X111758500Y-83115170D01*
X112110160Y-83115170D01*
X112115887Y-83122820D01*
X112287042Y-83227705D01*
X112295837Y-83232187D01*
X112505988Y-83319234D01*
X112515373Y-83322283D01*
X112736554Y-83375385D01*
X112746301Y-83376928D01*
X112973070Y-83394775D01*
X112982930Y-83394775D01*
X113209699Y-83376928D01*
X113219446Y-83375385D01*
X113440627Y-83322283D01*
X113450012Y-83319234D01*
X113660163Y-83232187D01*
X113668958Y-83227705D01*
X113836445Y-83125068D01*
X113845907Y-83114610D01*
X113842124Y-83105834D01*
X112990812Y-82254522D01*
X112976868Y-82246908D01*
X112975035Y-82247039D01*
X112968420Y-82251290D01*
X112116920Y-83102790D01*
X112110160Y-83115170D01*
X111758500Y-83115170D01*
X111758500Y-82794980D01*
X111778502Y-82726859D01*
X111795405Y-82705885D01*
X112605978Y-81895312D01*
X112612356Y-81883632D01*
X113342408Y-81883632D01*
X113342539Y-81885465D01*
X113346790Y-81892080D01*
X114198290Y-82743580D01*
X114210670Y-82750340D01*
X114218320Y-82744613D01*
X114323205Y-82573458D01*
X114327687Y-82564663D01*
X114414734Y-82354512D01*
X114417783Y-82345127D01*
X114470885Y-82123946D01*
X114472428Y-82114199D01*
X114490275Y-81887430D01*
X114490275Y-81877570D01*
X114472428Y-81650801D01*
X114470885Y-81641054D01*
X114417783Y-81419873D01*
X114414734Y-81410488D01*
X114327687Y-81200337D01*
X114323205Y-81191542D01*
X114220568Y-81024055D01*
X114210110Y-81014593D01*
X114201334Y-81018376D01*
X113350022Y-81869688D01*
X113342408Y-81883632D01*
X112612356Y-81883632D01*
X112613592Y-81881368D01*
X112613461Y-81879535D01*
X112609210Y-81872920D01*
X111795405Y-81059115D01*
X111761379Y-80996803D01*
X111758500Y-80970020D01*
X111758500Y-80650390D01*
X112110093Y-80650390D01*
X112113876Y-80659166D01*
X112965188Y-81510478D01*
X112979132Y-81518092D01*
X112980965Y-81517961D01*
X112987580Y-81513710D01*
X113839080Y-80662210D01*
X113845840Y-80649830D01*
X113840113Y-80642180D01*
X113668958Y-80537295D01*
X113660163Y-80532813D01*
X113450012Y-80445766D01*
X113440627Y-80442717D01*
X113219446Y-80389615D01*
X113209699Y-80388072D01*
X112982930Y-80370225D01*
X112973070Y-80370225D01*
X112746301Y-80388072D01*
X112736554Y-80389615D01*
X112515373Y-80442717D01*
X112505988Y-80445766D01*
X112295837Y-80532813D01*
X112287042Y-80537295D01*
X112119555Y-80639932D01*
X112110093Y-80650390D01*
X111758500Y-80650390D01*
X111758500Y-79724073D01*
X111778502Y-79655952D01*
X111832158Y-79609459D01*
X111902432Y-79599355D01*
X111966330Y-79628262D01*
X112084818Y-79729461D01*
X112084824Y-79729465D01*
X112088584Y-79732676D01*
X112092792Y-79735255D01*
X112092798Y-79735259D01*
X112286817Y-79854154D01*
X112291037Y-79856740D01*
X112295607Y-79858633D01*
X112295611Y-79858635D01*
X112505833Y-79945711D01*
X112510406Y-79947605D01*
X112590609Y-79966860D01*
X112736476Y-80001880D01*
X112736482Y-80001881D01*
X112741289Y-80003035D01*
X112978000Y-80021665D01*
X113214711Y-80003035D01*
X113219518Y-80001881D01*
X113219524Y-80001880D01*
X113365391Y-79966860D01*
X113445594Y-79947605D01*
X113450167Y-79945711D01*
X113660389Y-79858635D01*
X113660393Y-79858633D01*
X113664963Y-79856740D01*
X113669183Y-79854154D01*
X113863202Y-79735259D01*
X113863208Y-79735255D01*
X113867416Y-79732676D01*
X114047969Y-79578469D01*
X114202176Y-79397916D01*
X114204755Y-79393708D01*
X114204759Y-79393702D01*
X114323654Y-79199683D01*
X114326240Y-79195463D01*
X114349007Y-79140500D01*
X114415211Y-78980667D01*
X114415212Y-78980665D01*
X114417105Y-78976094D01*
X114443987Y-78864124D01*
X114471380Y-78750024D01*
X114471381Y-78750018D01*
X114472535Y-78745211D01*
X114491165Y-78508500D01*
X114472535Y-78271789D01*
X114465169Y-78241105D01*
X114426383Y-78079551D01*
X114417105Y-78040906D01*
X114412512Y-78029818D01*
X114328135Y-77826111D01*
X114328133Y-77826107D01*
X114326240Y-77821537D01*
X114289868Y-77762184D01*
X114204759Y-77623298D01*
X114204755Y-77623292D01*
X114202176Y-77619084D01*
X114047969Y-77438531D01*
X113867416Y-77284324D01*
X113863208Y-77281745D01*
X113863202Y-77281741D01*
X113669183Y-77162846D01*
X113664963Y-77160260D01*
X113660393Y-77158367D01*
X113660389Y-77158365D01*
X113450167Y-77071289D01*
X113450165Y-77071288D01*
X113445594Y-77069395D01*
X113365391Y-77050140D01*
X113219524Y-77015120D01*
X113219518Y-77015119D01*
X113214711Y-77013965D01*
X112978000Y-76995335D01*
X112741289Y-77013965D01*
X112736482Y-77015119D01*
X112736476Y-77015120D01*
X112570896Y-77054873D01*
X112518049Y-77067560D01*
X112447142Y-77064013D01*
X112399541Y-77034136D01*
X112323894Y-76958489D01*
X112289868Y-76896177D01*
X112286989Y-76869394D01*
X112286989Y-75543635D01*
X112306991Y-75475514D01*
X112360647Y-75429021D01*
X112430921Y-75418917D01*
X112461205Y-75427226D01*
X112510406Y-75447605D01*
X112590609Y-75466860D01*
X112736476Y-75501880D01*
X112736482Y-75501881D01*
X112741289Y-75503035D01*
X112978000Y-75521665D01*
X113214711Y-75503035D01*
X113219518Y-75501881D01*
X113219524Y-75501880D01*
X113365391Y-75466860D01*
X113445594Y-75447605D01*
X113450167Y-75445711D01*
X113660389Y-75358635D01*
X113660393Y-75358633D01*
X113664963Y-75356740D01*
X113669183Y-75354154D01*
X113863202Y-75235259D01*
X113863208Y-75235255D01*
X113867416Y-75232676D01*
X114047969Y-75078469D01*
X114202176Y-74897916D01*
X114204755Y-74893708D01*
X114204759Y-74893702D01*
X114323654Y-74699683D01*
X114326240Y-74695463D01*
X114367129Y-74596749D01*
X114415211Y-74480667D01*
X114415212Y-74480665D01*
X114417105Y-74476094D01*
X114459006Y-74301565D01*
X114471380Y-74250024D01*
X114471381Y-74250018D01*
X114472535Y-74245211D01*
X114491165Y-74008500D01*
X114472535Y-73771789D01*
X114461080Y-73724072D01*
X114418260Y-73545718D01*
X114417105Y-73540906D01*
X114353717Y-73387872D01*
X114328135Y-73326111D01*
X114328133Y-73326107D01*
X114326240Y-73321537D01*
X114289868Y-73262184D01*
X114204759Y-73123298D01*
X114204755Y-73123292D01*
X114202176Y-73119084D01*
X114047969Y-72938531D01*
X113867416Y-72784324D01*
X113863208Y-72781745D01*
X113863202Y-72781741D01*
X113669183Y-72662846D01*
X113664963Y-72660260D01*
X113660393Y-72658367D01*
X113660389Y-72658365D01*
X113450167Y-72571289D01*
X113450165Y-72571288D01*
X113445594Y-72569395D01*
X113327158Y-72540961D01*
X113219524Y-72515120D01*
X113219518Y-72515119D01*
X113214711Y-72513965D01*
X112978000Y-72495335D01*
X112741289Y-72513965D01*
X112736482Y-72515119D01*
X112736476Y-72515120D01*
X112628842Y-72540961D01*
X112510406Y-72569395D01*
X112505835Y-72571288D01*
X112505833Y-72571289D01*
X112486580Y-72579264D01*
X112461206Y-72589774D01*
X112390618Y-72597363D01*
X112327131Y-72565584D01*
X112290903Y-72504526D01*
X112286989Y-72473365D01*
X112286989Y-72273605D01*
X112306991Y-72205484D01*
X112323894Y-72184510D01*
X112399540Y-72108864D01*
X112461852Y-72074838D01*
X112518049Y-72075440D01*
X112736476Y-72127880D01*
X112736482Y-72127881D01*
X112741289Y-72129035D01*
X112978000Y-72147665D01*
X113214711Y-72129035D01*
X113219518Y-72127881D01*
X113219524Y-72127880D01*
X113388275Y-72087366D01*
X113445594Y-72073605D01*
X113464517Y-72065767D01*
X113660389Y-71984635D01*
X113660393Y-71984633D01*
X113664963Y-71982740D01*
X113677168Y-71975261D01*
X113863202Y-71861259D01*
X113863208Y-71861255D01*
X113867416Y-71858676D01*
X114047969Y-71704469D01*
X114202176Y-71523916D01*
X114204755Y-71519708D01*
X114204759Y-71519702D01*
X114322133Y-71328165D01*
X114374781Y-71280534D01*
X114429566Y-71268000D01*
X122011141Y-71268000D01*
X122079262Y-71288002D01*
X122125755Y-71341658D01*
X122135859Y-71411932D01*
X122106365Y-71476512D01*
X122046639Y-71514896D01*
X122037337Y-71517247D01*
X122025170Y-71519833D01*
X122025167Y-71519834D01*
X122018712Y-71521206D01*
X122012682Y-71523891D01*
X122012681Y-71523891D01*
X121850278Y-71596197D01*
X121850276Y-71596198D01*
X121844248Y-71598882D01*
X121689747Y-71711134D01*
X121685326Y-71716044D01*
X121685325Y-71716045D01*
X121585279Y-71827158D01*
X121561960Y-71853056D01*
X121466473Y-72018444D01*
X121407458Y-72200072D01*
X121406768Y-72206633D01*
X121406768Y-72206635D01*
X121388282Y-72382524D01*
X121387496Y-72390000D01*
X121388186Y-72396565D01*
X121406230Y-72568240D01*
X121407458Y-72579928D01*
X121466473Y-72761556D01*
X121469776Y-72767278D01*
X121469777Y-72767279D01*
X121525619Y-72863999D01*
X121542500Y-72926999D01*
X121542500Y-73377001D01*
X121525619Y-73440000D01*
X121466473Y-73542444D01*
X121407458Y-73724072D01*
X121406768Y-73730633D01*
X121406768Y-73730635D01*
X121402443Y-73771789D01*
X121387496Y-73914000D01*
X121407458Y-74103928D01*
X121466473Y-74285556D01*
X121469776Y-74291278D01*
X121469777Y-74291279D01*
X121475716Y-74301565D01*
X121561960Y-74450944D01*
X121566378Y-74455851D01*
X121566379Y-74455852D01*
X121653065Y-74552127D01*
X121689747Y-74592866D01*
X121696702Y-74597919D01*
X121837354Y-74700109D01*
X121844248Y-74705118D01*
X121850276Y-74707802D01*
X121850278Y-74707803D01*
X121868022Y-74715703D01*
X122018712Y-74782794D01*
X122095308Y-74799075D01*
X122199056Y-74821128D01*
X122199061Y-74821128D01*
X122205513Y-74822500D01*
X122396487Y-74822500D01*
X122402939Y-74821128D01*
X122402944Y-74821128D01*
X122506692Y-74799075D01*
X122583288Y-74782794D01*
X122733978Y-74715703D01*
X122751722Y-74707803D01*
X122751724Y-74707802D01*
X122757752Y-74705118D01*
X122764647Y-74700109D01*
X122905298Y-74597919D01*
X122912253Y-74592866D01*
X122948935Y-74552127D01*
X123035621Y-74455852D01*
X123035622Y-74455851D01*
X123040040Y-74450944D01*
X123126284Y-74301565D01*
X123132223Y-74291279D01*
X123132224Y-74291278D01*
X123135527Y-74285556D01*
X123194542Y-74103928D01*
X123214504Y-73914000D01*
X123199557Y-73771789D01*
X123195232Y-73730635D01*
X123195232Y-73730633D01*
X123194542Y-73724072D01*
X123135527Y-73542444D01*
X123076381Y-73440000D01*
X123059500Y-73377001D01*
X123059500Y-72926999D01*
X123076381Y-72863999D01*
X123132223Y-72767279D01*
X123132224Y-72767278D01*
X123135527Y-72761556D01*
X123194542Y-72579928D01*
X123195771Y-72568240D01*
X123213814Y-72396565D01*
X123214504Y-72390000D01*
X123213718Y-72382524D01*
X123195232Y-72206635D01*
X123195232Y-72206633D01*
X123194542Y-72200072D01*
X123135527Y-72018444D01*
X123040040Y-71853056D01*
X123016722Y-71827158D01*
X122916675Y-71716045D01*
X122916674Y-71716044D01*
X122912253Y-71711134D01*
X122757752Y-71598882D01*
X122751724Y-71596198D01*
X122751722Y-71596197D01*
X122589319Y-71523891D01*
X122589318Y-71523891D01*
X122583288Y-71521206D01*
X122576833Y-71519834D01*
X122576830Y-71519833D01*
X122564663Y-71517247D01*
X122502189Y-71483519D01*
X122467867Y-71421369D01*
X122472595Y-71350530D01*
X122514870Y-71293493D01*
X122581272Y-71268365D01*
X122590859Y-71268000D01*
X134063335Y-71268000D01*
X134131456Y-71288002D01*
X134137394Y-71292063D01*
X134146892Y-71298963D01*
X134273948Y-71391275D01*
X134290248Y-71403118D01*
X134296276Y-71405802D01*
X134296278Y-71405803D01*
X134373208Y-71440054D01*
X134464712Y-71480794D01*
X134558112Y-71500647D01*
X134645056Y-71519128D01*
X134645061Y-71519128D01*
X134651513Y-71520500D01*
X134842487Y-71520500D01*
X134848939Y-71519128D01*
X134848944Y-71519128D01*
X134935888Y-71500647D01*
X135029288Y-71480794D01*
X135120792Y-71440054D01*
X135197722Y-71405803D01*
X135197724Y-71405802D01*
X135203752Y-71403118D01*
X135220053Y-71391275D01*
X135288344Y-71341658D01*
X135358253Y-71290866D01*
X135486040Y-71148944D01*
X135581527Y-70983556D01*
X135640542Y-70801928D01*
X135649809Y-70713763D01*
X135659814Y-70618565D01*
X135660504Y-70612000D01*
X135658599Y-70593872D01*
X135641232Y-70428635D01*
X135641232Y-70428633D01*
X135640542Y-70422072D01*
X135581527Y-70240444D01*
X135577101Y-70232777D01*
X135536796Y-70162967D01*
X135486040Y-70075056D01*
X135471798Y-70059238D01*
X135362675Y-69938045D01*
X135362674Y-69938044D01*
X135358253Y-69933134D01*
X135203752Y-69820882D01*
X135197724Y-69818198D01*
X135197722Y-69818197D01*
X135035319Y-69745891D01*
X135035318Y-69745891D01*
X135029288Y-69743206D01*
X134932270Y-69722584D01*
X134848944Y-69704872D01*
X134848939Y-69704872D01*
X134842487Y-69703500D01*
X134651513Y-69703500D01*
X134645061Y-69704872D01*
X134645056Y-69704872D01*
X134561730Y-69722584D01*
X134464712Y-69743206D01*
X134458682Y-69745891D01*
X134458681Y-69745891D01*
X134296278Y-69818197D01*
X134296276Y-69818198D01*
X134290248Y-69820882D01*
X134135747Y-69933134D01*
X134131334Y-69938036D01*
X134131332Y-69938037D01*
X134112177Y-69959311D01*
X134051731Y-69996550D01*
X134018541Y-70001000D01*
X114429566Y-70001000D01*
X114361445Y-69980998D01*
X114322133Y-69940835D01*
X114204759Y-69749298D01*
X114204755Y-69749292D01*
X114202176Y-69745084D01*
X114047969Y-69564531D01*
X113867416Y-69410324D01*
X113863208Y-69407745D01*
X113863202Y-69407741D01*
X113669183Y-69288846D01*
X113664963Y-69286260D01*
X113615761Y-69265880D01*
X113560481Y-69221331D01*
X113538060Y-69153968D01*
X113555619Y-69085176D01*
X113574885Y-69060376D01*
X115135334Y-67499928D01*
X116782826Y-65852436D01*
X116845138Y-65818410D01*
X116871921Y-65815531D01*
X128160202Y-65815531D01*
X128171385Y-65816058D01*
X128178878Y-65817733D01*
X128186804Y-65817484D01*
X128186805Y-65817484D01*
X128246955Y-65815593D01*
X128250914Y-65815531D01*
X128278825Y-65815531D01*
X128282760Y-65815034D01*
X128282825Y-65815026D01*
X128294662Y-65814093D01*
X128326920Y-65813079D01*
X128330939Y-65812953D01*
X128338858Y-65812704D01*
X128358312Y-65807052D01*
X128377669Y-65803044D01*
X128389899Y-65801499D01*
X128389900Y-65801499D01*
X128397766Y-65800505D01*
X128405137Y-65797586D01*
X128405139Y-65797586D01*
X128438881Y-65784227D01*
X128450111Y-65780382D01*
X128484952Y-65770260D01*
X128484953Y-65770260D01*
X128492562Y-65768049D01*
X128499381Y-65764016D01*
X128499386Y-65764014D01*
X128509997Y-65757738D01*
X128527745Y-65749043D01*
X128546586Y-65741583D01*
X128582356Y-65715595D01*
X128592276Y-65709079D01*
X128623504Y-65690611D01*
X128623507Y-65690609D01*
X128630331Y-65686573D01*
X128644652Y-65672252D01*
X128659686Y-65659411D01*
X128669663Y-65652162D01*
X128676076Y-65647503D01*
X128704267Y-65613426D01*
X128712257Y-65604647D01*
X129805247Y-64511657D01*
X129813537Y-64504113D01*
X129820018Y-64500000D01*
X129866659Y-64450332D01*
X129869413Y-64447491D01*
X129889135Y-64427769D01*
X129891612Y-64424576D01*
X129899317Y-64415555D01*
X129924159Y-64389100D01*
X129929586Y-64383321D01*
X129933407Y-64376371D01*
X129939346Y-64365568D01*
X129950202Y-64349041D01*
X129957757Y-64339302D01*
X129957758Y-64339300D01*
X129962614Y-64333040D01*
X129980174Y-64292460D01*
X129985391Y-64281812D01*
X130002875Y-64250009D01*
X130002876Y-64250007D01*
X130006695Y-64243060D01*
X130011733Y-64223437D01*
X130018137Y-64204734D01*
X130023033Y-64193420D01*
X130023033Y-64193419D01*
X130026181Y-64186145D01*
X130027420Y-64178322D01*
X130027423Y-64178312D01*
X130033099Y-64142476D01*
X130035505Y-64130856D01*
X130044528Y-64095711D01*
X130044528Y-64095710D01*
X130046500Y-64088030D01*
X130046500Y-64067776D01*
X130048051Y-64048065D01*
X130049980Y-64035886D01*
X130051220Y-64028057D01*
X130047059Y-63984038D01*
X130046500Y-63972181D01*
X130046500Y-62859354D01*
X130066502Y-62791233D01*
X130100228Y-62756142D01*
X130138908Y-62729058D01*
X130206183Y-62706371D01*
X130275043Y-62723657D01*
G37*
%TD.AperFunction*%
%TA.AperFunction,Conductor*%
G36*
X111723736Y-62529768D02*
G01*
X111748034Y-62532293D01*
X111852597Y-62553567D01*
X111857772Y-62553757D01*
X111857774Y-62553757D01*
X112070673Y-62561564D01*
X112070677Y-62561564D01*
X112075837Y-62561753D01*
X112080957Y-62561097D01*
X112080959Y-62561097D01*
X112288220Y-62534546D01*
X112305043Y-62533528D01*
X114206305Y-62545826D01*
X114347139Y-62546737D01*
X114371442Y-62549263D01*
X114392597Y-62553567D01*
X114397769Y-62553757D01*
X114397772Y-62553757D01*
X114610673Y-62561564D01*
X114610677Y-62561564D01*
X114615837Y-62561753D01*
X114620957Y-62561097D01*
X114620959Y-62561097D01*
X114706133Y-62550186D01*
X114722958Y-62549168D01*
X120070476Y-62583758D01*
X120138466Y-62604200D01*
X120158756Y-62620660D01*
X121245936Y-63707840D01*
X121279962Y-63770152D01*
X121280077Y-63818033D01*
X121280458Y-63818073D01*
X121279769Y-63824629D01*
X121279768Y-63824633D01*
X121262789Y-63986182D01*
X121235776Y-64051838D01*
X121177554Y-64092468D01*
X121137479Y-64099011D01*
X120673106Y-64099011D01*
X120604985Y-64079009D01*
X120584011Y-64062106D01*
X120581122Y-64059217D01*
X120547096Y-63996905D01*
X120544907Y-63983292D01*
X120528232Y-63824635D01*
X120528232Y-63824633D01*
X120527542Y-63818072D01*
X120468527Y-63636444D01*
X120373040Y-63471056D01*
X120245253Y-63329134D01*
X120090752Y-63216882D01*
X120084724Y-63214198D01*
X120084722Y-63214197D01*
X119922319Y-63141891D01*
X119922318Y-63141891D01*
X119916288Y-63139206D01*
X119817454Y-63118198D01*
X119735944Y-63100872D01*
X119735939Y-63100872D01*
X119729487Y-63099500D01*
X119538513Y-63099500D01*
X119532061Y-63100872D01*
X119532056Y-63100872D01*
X119450546Y-63118198D01*
X119351712Y-63139206D01*
X119345682Y-63141891D01*
X119345681Y-63141891D01*
X119183278Y-63214197D01*
X119183276Y-63214198D01*
X119177248Y-63216882D01*
X119022747Y-63329134D01*
X118894960Y-63471056D01*
X118799473Y-63636444D01*
X118740458Y-63818072D01*
X118739768Y-63824633D01*
X118739768Y-63824635D01*
X118735157Y-63868505D01*
X118720496Y-64008000D01*
X118721186Y-64014565D01*
X118739220Y-64186145D01*
X118740458Y-64197928D01*
X118781997Y-64325770D01*
X118799473Y-64379556D01*
X118797732Y-64380122D01*
X118805978Y-64441656D01*
X118775868Y-64505952D01*
X118715777Y-64543762D01*
X118681438Y-64548531D01*
X116636093Y-64548531D01*
X116624910Y-64548004D01*
X116617417Y-64546329D01*
X116609491Y-64546578D01*
X116609490Y-64546578D01*
X116549340Y-64548469D01*
X116545381Y-64548531D01*
X116517470Y-64548531D01*
X116513536Y-64549028D01*
X116513535Y-64549028D01*
X116513470Y-64549036D01*
X116501633Y-64549969D01*
X116469816Y-64550969D01*
X116465355Y-64551109D01*
X116457436Y-64551358D01*
X116439780Y-64556487D01*
X116437984Y-64557009D01*
X116418632Y-64561017D01*
X116411561Y-64561911D01*
X116398529Y-64563557D01*
X116391160Y-64566474D01*
X116391158Y-64566475D01*
X116357423Y-64579831D01*
X116346195Y-64583676D01*
X116303733Y-64596013D01*
X116296910Y-64600048D01*
X116296908Y-64600049D01*
X116286298Y-64606324D01*
X116268550Y-64615019D01*
X116249709Y-64622479D01*
X116243293Y-64627141D01*
X116243292Y-64627141D01*
X116213939Y-64648467D01*
X116204019Y-64654983D01*
X116172791Y-64673451D01*
X116172788Y-64673453D01*
X116165964Y-64677489D01*
X116151643Y-64691810D01*
X116136610Y-64704650D01*
X116120219Y-64716559D01*
X116115168Y-64722665D01*
X116092028Y-64750636D01*
X116084038Y-64759415D01*
X114700318Y-66143135D01*
X114638006Y-66177161D01*
X114567191Y-66172096D01*
X114510355Y-66129549D01*
X114485611Y-66063926D01*
X114475013Y-65929276D01*
X114472535Y-65897789D01*
X114460212Y-65846457D01*
X114422796Y-65690611D01*
X114417105Y-65666906D01*
X114415211Y-65662333D01*
X114328135Y-65452111D01*
X114328133Y-65452107D01*
X114326240Y-65447537D01*
X114289868Y-65388184D01*
X114204759Y-65249298D01*
X114204755Y-65249292D01*
X114202176Y-65245084D01*
X114047969Y-65064531D01*
X113867416Y-64910324D01*
X113863208Y-64907745D01*
X113863202Y-64907741D01*
X113669183Y-64788846D01*
X113664963Y-64786260D01*
X113660393Y-64784367D01*
X113660389Y-64784365D01*
X113450167Y-64697289D01*
X113450165Y-64697288D01*
X113445594Y-64695395D01*
X113365391Y-64676140D01*
X113219524Y-64641120D01*
X113219518Y-64641119D01*
X113214711Y-64639965D01*
X112978000Y-64621335D01*
X112741289Y-64639965D01*
X112736482Y-64641119D01*
X112736476Y-64641120D01*
X112590609Y-64676140D01*
X112510406Y-64695395D01*
X112505835Y-64697288D01*
X112505833Y-64697289D01*
X112295611Y-64784365D01*
X112295607Y-64784367D01*
X112291037Y-64786260D01*
X112286817Y-64788846D01*
X112092798Y-64907741D01*
X112092792Y-64907745D01*
X112088584Y-64910324D01*
X111908031Y-65064531D01*
X111753824Y-65245084D01*
X111751245Y-65249292D01*
X111751241Y-65249298D01*
X111666132Y-65388184D01*
X111629760Y-65447537D01*
X111627867Y-65452107D01*
X111627865Y-65452111D01*
X111540789Y-65662333D01*
X111538895Y-65666906D01*
X111533204Y-65690611D01*
X111495789Y-65846457D01*
X111483465Y-65897789D01*
X111464835Y-66134500D01*
X111483465Y-66371211D01*
X111484619Y-66376018D01*
X111484620Y-66376024D01*
X111491180Y-66403347D01*
X111538895Y-66602094D01*
X111540788Y-66606665D01*
X111540789Y-66606667D01*
X111613000Y-66781000D01*
X111629760Y-66821463D01*
X111632346Y-66825683D01*
X111751241Y-67019702D01*
X111751245Y-67019708D01*
X111753824Y-67023916D01*
X111908031Y-67204469D01*
X112088584Y-67358676D01*
X112092792Y-67361255D01*
X112092798Y-67361259D01*
X112278180Y-67474861D01*
X112291037Y-67482740D01*
X112295607Y-67484633D01*
X112295611Y-67484635D01*
X112505833Y-67571711D01*
X112510406Y-67573605D01*
X112584049Y-67591285D01*
X112736476Y-67627880D01*
X112736482Y-67627881D01*
X112741289Y-67629035D01*
X112809213Y-67634381D01*
X112907425Y-67642111D01*
X112973767Y-67667397D01*
X113015906Y-67724535D01*
X113020465Y-67795385D01*
X112986634Y-67856818D01*
X110732747Y-70110705D01*
X110724461Y-70118245D01*
X110717982Y-70122357D01*
X110712557Y-70128134D01*
X110671357Y-70172008D01*
X110668602Y-70174850D01*
X110648865Y-70194587D01*
X110646385Y-70197784D01*
X110638682Y-70206804D01*
X110608414Y-70239036D01*
X110604595Y-70245982D01*
X110604593Y-70245985D01*
X110598652Y-70256791D01*
X110587801Y-70273310D01*
X110575386Y-70289316D01*
X110572241Y-70296585D01*
X110572238Y-70296589D01*
X110557826Y-70329894D01*
X110552609Y-70340544D01*
X110531305Y-70379297D01*
X110529334Y-70386972D01*
X110529334Y-70386973D01*
X110526267Y-70398919D01*
X110519863Y-70417623D01*
X110511819Y-70436212D01*
X110510580Y-70444035D01*
X110510577Y-70444045D01*
X110504901Y-70479881D01*
X110502495Y-70491501D01*
X110499510Y-70503128D01*
X110491500Y-70534327D01*
X110491500Y-70554581D01*
X110489949Y-70574291D01*
X110486780Y-70594300D01*
X110487526Y-70602192D01*
X110490941Y-70638318D01*
X110491500Y-70650176D01*
X110491500Y-86323876D01*
X110490973Y-86335059D01*
X110489298Y-86342552D01*
X110489547Y-86350478D01*
X110489547Y-86350479D01*
X110491438Y-86410629D01*
X110491500Y-86414588D01*
X110491500Y-86442499D01*
X110491997Y-86446433D01*
X110491997Y-86446434D01*
X110492005Y-86446499D01*
X110492938Y-86458342D01*
X110494070Y-86494342D01*
X110494327Y-86502532D01*
X110499978Y-86521982D01*
X110503987Y-86541343D01*
X110506526Y-86561440D01*
X110509445Y-86568811D01*
X110509445Y-86568813D01*
X110522804Y-86602555D01*
X110526649Y-86613785D01*
X110529624Y-86624024D01*
X110538982Y-86656236D01*
X110543015Y-86663055D01*
X110543017Y-86663060D01*
X110549293Y-86673671D01*
X110557988Y-86691419D01*
X110565448Y-86710260D01*
X110570110Y-86716676D01*
X110570110Y-86716677D01*
X110591436Y-86746030D01*
X110597952Y-86755950D01*
X110620458Y-86794005D01*
X110634779Y-86808326D01*
X110647619Y-86823359D01*
X110659528Y-86839750D01*
X110689178Y-86864279D01*
X110693605Y-86867941D01*
X110702384Y-86875931D01*
X111925716Y-88099264D01*
X111933256Y-88107550D01*
X111937368Y-88114029D01*
X111943145Y-88119454D01*
X111987019Y-88160654D01*
X111989861Y-88163409D01*
X112009598Y-88183146D01*
X112012795Y-88185626D01*
X112021815Y-88193329D01*
X112054047Y-88223597D01*
X112060993Y-88227416D01*
X112060996Y-88227418D01*
X112071802Y-88233359D01*
X112088321Y-88244210D01*
X112104327Y-88256625D01*
X112111596Y-88259770D01*
X112111600Y-88259773D01*
X112144905Y-88274185D01*
X112155555Y-88279402D01*
X112194308Y-88300706D01*
X112201983Y-88302677D01*
X112201984Y-88302677D01*
X112213930Y-88305744D01*
X112232634Y-88312148D01*
X112235142Y-88313233D01*
X112251223Y-88320192D01*
X112259046Y-88321431D01*
X112259056Y-88321434D01*
X112294892Y-88327110D01*
X112306512Y-88329516D01*
X112338327Y-88337684D01*
X112349338Y-88340511D01*
X112369592Y-88340511D01*
X112389302Y-88342062D01*
X112409311Y-88345231D01*
X112417203Y-88344485D01*
X112435948Y-88342713D01*
X112453330Y-88341070D01*
X112465187Y-88340511D01*
X113447865Y-88340511D01*
X113459048Y-88341038D01*
X113466541Y-88342713D01*
X113474467Y-88342464D01*
X113474468Y-88342464D01*
X113534618Y-88340573D01*
X113538577Y-88340511D01*
X113566488Y-88340511D01*
X113570423Y-88340014D01*
X113570488Y-88340006D01*
X113582325Y-88339073D01*
X113614583Y-88338059D01*
X113618602Y-88337933D01*
X113626521Y-88337684D01*
X113645975Y-88332032D01*
X113665332Y-88328024D01*
X113677562Y-88326479D01*
X113677563Y-88326479D01*
X113685429Y-88325485D01*
X113692800Y-88322566D01*
X113692802Y-88322566D01*
X113726544Y-88309207D01*
X113737774Y-88305362D01*
X113772615Y-88295240D01*
X113772616Y-88295240D01*
X113780225Y-88293029D01*
X113787044Y-88288996D01*
X113787049Y-88288994D01*
X113797660Y-88282718D01*
X113815408Y-88274023D01*
X113834249Y-88266563D01*
X113870019Y-88240575D01*
X113879939Y-88234059D01*
X113911167Y-88215591D01*
X113911170Y-88215589D01*
X113917994Y-88211553D01*
X113932315Y-88197232D01*
X113947349Y-88184391D01*
X113957326Y-88177142D01*
X113963739Y-88172483D01*
X113991930Y-88138406D01*
X113999920Y-88129627D01*
X114528010Y-87601537D01*
X114590322Y-87567511D01*
X114617105Y-87564632D01*
X119015242Y-87564632D01*
X119083363Y-87584634D01*
X119129856Y-87638290D01*
X119139960Y-87708564D01*
X119118439Y-87761588D01*
X119117414Y-87762679D01*
X119113593Y-87769629D01*
X119107652Y-87780434D01*
X119096801Y-87796953D01*
X119084386Y-87812959D01*
X119081241Y-87820228D01*
X119081238Y-87820232D01*
X119066826Y-87853537D01*
X119061609Y-87864187D01*
X119040305Y-87902940D01*
X119038334Y-87910615D01*
X119038334Y-87910616D01*
X119035267Y-87922562D01*
X119028863Y-87941266D01*
X119024505Y-87951338D01*
X119020819Y-87959855D01*
X119019580Y-87967678D01*
X119019577Y-87967688D01*
X119013901Y-88003524D01*
X119011495Y-88015144D01*
X119007152Y-88032062D01*
X119000500Y-88057970D01*
X119000500Y-88078224D01*
X118998949Y-88097934D01*
X118995780Y-88117943D01*
X118996526Y-88125835D01*
X118999941Y-88161961D01*
X119000500Y-88173819D01*
X119000500Y-89337489D01*
X118980498Y-89405610D01*
X118926842Y-89452103D01*
X118874013Y-89463488D01*
X105094513Y-89410217D01*
X105026470Y-89389952D01*
X104980185Y-89336117D01*
X104969000Y-89284218D01*
X104969000Y-87253889D01*
X104989002Y-87185768D01*
X105042658Y-87139275D01*
X105112932Y-87129171D01*
X105177512Y-87158665D01*
X105202432Y-87188054D01*
X105251235Y-87267693D01*
X105251242Y-87267702D01*
X105253824Y-87271916D01*
X105408031Y-87452469D01*
X105411787Y-87455677D01*
X105422347Y-87464696D01*
X105588584Y-87606676D01*
X105592792Y-87609255D01*
X105592798Y-87609259D01*
X105739634Y-87699240D01*
X105791037Y-87730740D01*
X105795607Y-87732633D01*
X105795611Y-87732635D01*
X106005833Y-87819711D01*
X106010406Y-87821605D01*
X106081329Y-87838632D01*
X106236476Y-87875880D01*
X106236482Y-87875881D01*
X106241289Y-87877035D01*
X106478000Y-87895665D01*
X106714711Y-87877035D01*
X106719518Y-87875881D01*
X106719524Y-87875880D01*
X106874671Y-87838632D01*
X106945594Y-87821605D01*
X106950167Y-87819711D01*
X107160389Y-87732635D01*
X107160393Y-87732633D01*
X107164963Y-87730740D01*
X107216366Y-87699240D01*
X107363202Y-87609259D01*
X107363208Y-87609255D01*
X107367416Y-87606676D01*
X107533653Y-87464696D01*
X107544213Y-87455677D01*
X107547969Y-87452469D01*
X107702176Y-87271916D01*
X107704755Y-87267708D01*
X107704759Y-87267702D01*
X107823654Y-87073683D01*
X107826240Y-87069463D01*
X107845095Y-87023944D01*
X107915211Y-86854667D01*
X107915212Y-86854665D01*
X107917105Y-86850094D01*
X107957171Y-86683206D01*
X107971380Y-86624024D01*
X107971381Y-86624018D01*
X107972535Y-86619211D01*
X107991165Y-86382500D01*
X107972535Y-86145789D01*
X107970587Y-86137672D01*
X107936360Y-85995109D01*
X107917105Y-85914906D01*
X107908701Y-85894617D01*
X107828135Y-85700111D01*
X107828133Y-85700107D01*
X107826240Y-85695537D01*
X107789251Y-85635176D01*
X107704759Y-85497298D01*
X107704755Y-85497292D01*
X107702176Y-85493084D01*
X107547969Y-85312531D01*
X107367416Y-85158324D01*
X107363208Y-85155745D01*
X107363202Y-85155741D01*
X107169183Y-85036846D01*
X107164963Y-85034260D01*
X107160393Y-85032367D01*
X107160389Y-85032365D01*
X106950167Y-84945289D01*
X106950165Y-84945288D01*
X106945594Y-84943395D01*
X106853920Y-84921386D01*
X106719524Y-84889120D01*
X106719518Y-84889119D01*
X106714711Y-84887965D01*
X106478000Y-84869335D01*
X106241289Y-84887965D01*
X106236482Y-84889119D01*
X106236476Y-84889120D01*
X106102080Y-84921386D01*
X106010406Y-84943395D01*
X106005835Y-84945288D01*
X106005833Y-84945289D01*
X105795611Y-85032365D01*
X105795607Y-85032367D01*
X105791037Y-85034260D01*
X105786817Y-85036846D01*
X105592798Y-85155741D01*
X105592792Y-85155745D01*
X105588584Y-85158324D01*
X105408031Y-85312531D01*
X105253824Y-85493084D01*
X105251242Y-85497297D01*
X105251235Y-85497307D01*
X105202432Y-85576946D01*
X105149785Y-85624577D01*
X105079743Y-85636184D01*
X105014546Y-85608081D01*
X104974892Y-85549190D01*
X104969000Y-85511111D01*
X104969000Y-83115170D01*
X105610160Y-83115170D01*
X105615887Y-83122820D01*
X105787042Y-83227705D01*
X105795837Y-83232187D01*
X106005988Y-83319234D01*
X106015373Y-83322283D01*
X106236554Y-83375385D01*
X106246301Y-83376928D01*
X106473070Y-83394775D01*
X106482930Y-83394775D01*
X106709699Y-83376928D01*
X106719446Y-83375385D01*
X106940627Y-83322283D01*
X106950012Y-83319234D01*
X107160163Y-83232187D01*
X107168958Y-83227705D01*
X107336445Y-83125068D01*
X107345907Y-83114610D01*
X107342124Y-83105834D01*
X106490812Y-82254522D01*
X106476868Y-82246908D01*
X106475035Y-82247039D01*
X106468420Y-82251290D01*
X105616920Y-83102790D01*
X105610160Y-83115170D01*
X104969000Y-83115170D01*
X104969000Y-82752929D01*
X104989002Y-82684808D01*
X105042658Y-82638315D01*
X105112932Y-82628211D01*
X105177512Y-82657705D01*
X105202433Y-82687094D01*
X105235435Y-82740947D01*
X105245890Y-82750407D01*
X105254666Y-82746624D01*
X106105978Y-81895312D01*
X106112356Y-81883632D01*
X106842408Y-81883632D01*
X106842539Y-81885465D01*
X106846790Y-81892080D01*
X107698290Y-82743580D01*
X107710670Y-82750340D01*
X107718320Y-82744613D01*
X107823205Y-82573458D01*
X107827687Y-82564663D01*
X107914734Y-82354512D01*
X107917783Y-82345127D01*
X107970885Y-82123946D01*
X107972428Y-82114199D01*
X107990275Y-81887430D01*
X107990275Y-81877570D01*
X107972428Y-81650801D01*
X107970885Y-81641054D01*
X107917783Y-81419873D01*
X107914734Y-81410488D01*
X107827687Y-81200337D01*
X107823205Y-81191542D01*
X107720568Y-81024055D01*
X107710110Y-81014593D01*
X107701334Y-81018376D01*
X106850022Y-81869688D01*
X106842408Y-81883632D01*
X106112356Y-81883632D01*
X106113592Y-81881368D01*
X106113461Y-81879535D01*
X106109210Y-81872920D01*
X105257710Y-81021420D01*
X105245330Y-81014660D01*
X105237682Y-81020385D01*
X105202433Y-81077906D01*
X105149785Y-81125537D01*
X105079744Y-81137144D01*
X105014546Y-81109041D01*
X104974892Y-81050150D01*
X104969000Y-81012071D01*
X104969000Y-80650390D01*
X105610093Y-80650390D01*
X105613876Y-80659166D01*
X106465188Y-81510478D01*
X106479132Y-81518092D01*
X106480965Y-81517961D01*
X106487580Y-81513710D01*
X107339080Y-80662210D01*
X107345840Y-80649830D01*
X107340113Y-80642180D01*
X107168958Y-80537295D01*
X107160163Y-80532813D01*
X106950012Y-80445766D01*
X106940627Y-80442717D01*
X106719446Y-80389615D01*
X106709699Y-80388072D01*
X106482930Y-80370225D01*
X106473070Y-80370225D01*
X106246301Y-80388072D01*
X106236554Y-80389615D01*
X106015373Y-80442717D01*
X106005988Y-80445766D01*
X105795837Y-80532813D01*
X105787042Y-80537295D01*
X105619555Y-80639932D01*
X105610093Y-80650390D01*
X104969000Y-80650390D01*
X104969000Y-79379889D01*
X104989002Y-79311768D01*
X105042658Y-79265275D01*
X105112932Y-79255171D01*
X105177512Y-79284665D01*
X105202432Y-79314054D01*
X105251235Y-79393693D01*
X105251242Y-79393702D01*
X105253824Y-79397916D01*
X105408031Y-79578469D01*
X105588584Y-79732676D01*
X105592792Y-79735255D01*
X105592798Y-79735259D01*
X105786817Y-79854154D01*
X105791037Y-79856740D01*
X105795607Y-79858633D01*
X105795611Y-79858635D01*
X106005833Y-79945711D01*
X106010406Y-79947605D01*
X106090609Y-79966860D01*
X106236476Y-80001880D01*
X106236482Y-80001881D01*
X106241289Y-80003035D01*
X106478000Y-80021665D01*
X106714711Y-80003035D01*
X106719518Y-80001881D01*
X106719524Y-80001880D01*
X106865391Y-79966860D01*
X106945594Y-79947605D01*
X106950167Y-79945711D01*
X107160389Y-79858635D01*
X107160393Y-79858633D01*
X107164963Y-79856740D01*
X107169183Y-79854154D01*
X107363202Y-79735259D01*
X107363208Y-79735255D01*
X107367416Y-79732676D01*
X107547969Y-79578469D01*
X107702176Y-79397916D01*
X107704755Y-79393708D01*
X107704759Y-79393702D01*
X107823654Y-79199683D01*
X107826240Y-79195463D01*
X107849007Y-79140500D01*
X107915211Y-78980667D01*
X107915212Y-78980665D01*
X107917105Y-78976094D01*
X107943987Y-78864124D01*
X107971380Y-78750024D01*
X107971381Y-78750018D01*
X107972535Y-78745211D01*
X107991165Y-78508500D01*
X107972535Y-78271789D01*
X107965169Y-78241105D01*
X107926383Y-78079551D01*
X107917105Y-78040906D01*
X107912512Y-78029818D01*
X107828135Y-77826111D01*
X107828133Y-77826107D01*
X107826240Y-77821537D01*
X107789868Y-77762184D01*
X107704759Y-77623298D01*
X107704755Y-77623292D01*
X107702176Y-77619084D01*
X107547969Y-77438531D01*
X107367416Y-77284324D01*
X107363208Y-77281745D01*
X107363202Y-77281741D01*
X107169183Y-77162846D01*
X107164963Y-77160260D01*
X107160393Y-77158367D01*
X107160389Y-77158365D01*
X106950167Y-77071289D01*
X106950165Y-77071288D01*
X106945594Y-77069395D01*
X106865391Y-77050140D01*
X106719524Y-77015120D01*
X106719518Y-77015119D01*
X106714711Y-77013965D01*
X106478000Y-76995335D01*
X106241289Y-77013965D01*
X106236482Y-77015119D01*
X106236476Y-77015120D01*
X106090609Y-77050140D01*
X106010406Y-77069395D01*
X106005835Y-77071288D01*
X106005833Y-77071289D01*
X105795611Y-77158365D01*
X105795607Y-77158367D01*
X105791037Y-77160260D01*
X105786817Y-77162846D01*
X105592798Y-77281741D01*
X105592792Y-77281745D01*
X105588584Y-77284324D01*
X105408031Y-77438531D01*
X105253824Y-77619084D01*
X105251242Y-77623297D01*
X105251235Y-77623307D01*
X105202432Y-77702946D01*
X105149785Y-77750577D01*
X105079743Y-77762184D01*
X105014546Y-77734081D01*
X104974892Y-77675190D01*
X104969000Y-77637111D01*
X104969000Y-74879889D01*
X104989002Y-74811768D01*
X105042658Y-74765275D01*
X105112932Y-74755171D01*
X105177512Y-74784665D01*
X105202432Y-74814054D01*
X105251235Y-74893693D01*
X105251242Y-74893702D01*
X105253824Y-74897916D01*
X105408031Y-75078469D01*
X105588584Y-75232676D01*
X105592792Y-75235255D01*
X105592798Y-75235259D01*
X105786817Y-75354154D01*
X105791037Y-75356740D01*
X105795607Y-75358633D01*
X105795611Y-75358635D01*
X106005833Y-75445711D01*
X106010406Y-75447605D01*
X106090609Y-75466860D01*
X106236476Y-75501880D01*
X106236482Y-75501881D01*
X106241289Y-75503035D01*
X106478000Y-75521665D01*
X106714711Y-75503035D01*
X106719518Y-75501881D01*
X106719524Y-75501880D01*
X106865391Y-75466860D01*
X106945594Y-75447605D01*
X106950167Y-75445711D01*
X107160389Y-75358635D01*
X107160393Y-75358633D01*
X107164963Y-75356740D01*
X107169183Y-75354154D01*
X107363202Y-75235259D01*
X107363208Y-75235255D01*
X107367416Y-75232676D01*
X107547969Y-75078469D01*
X107702176Y-74897916D01*
X107704755Y-74893708D01*
X107704759Y-74893702D01*
X107823654Y-74699683D01*
X107826240Y-74695463D01*
X107867129Y-74596749D01*
X107915211Y-74480667D01*
X107915212Y-74480665D01*
X107917105Y-74476094D01*
X107959006Y-74301565D01*
X107971380Y-74250024D01*
X107971381Y-74250018D01*
X107972535Y-74245211D01*
X107991165Y-74008500D01*
X107972535Y-73771789D01*
X107961080Y-73724072D01*
X107918260Y-73545718D01*
X107917105Y-73540906D01*
X107853717Y-73387872D01*
X107828135Y-73326111D01*
X107828133Y-73326107D01*
X107826240Y-73321537D01*
X107789868Y-73262184D01*
X107704759Y-73123298D01*
X107704755Y-73123292D01*
X107702176Y-73119084D01*
X107547969Y-72938531D01*
X107367416Y-72784324D01*
X107363208Y-72781745D01*
X107363202Y-72781741D01*
X107169183Y-72662846D01*
X107164963Y-72660260D01*
X107160393Y-72658367D01*
X107160389Y-72658365D01*
X106950167Y-72571289D01*
X106950165Y-72571288D01*
X106945594Y-72569395D01*
X106827158Y-72540961D01*
X106719524Y-72515120D01*
X106719518Y-72515119D01*
X106714711Y-72513965D01*
X106478000Y-72495335D01*
X106241289Y-72513965D01*
X106236482Y-72515119D01*
X106236476Y-72515120D01*
X106128842Y-72540961D01*
X106010406Y-72569395D01*
X106005835Y-72571288D01*
X106005833Y-72571289D01*
X105795611Y-72658365D01*
X105795607Y-72658367D01*
X105791037Y-72660260D01*
X105786817Y-72662846D01*
X105592798Y-72781741D01*
X105592792Y-72781745D01*
X105588584Y-72784324D01*
X105408031Y-72938531D01*
X105253824Y-73119084D01*
X105251242Y-73123297D01*
X105251235Y-73123307D01*
X105202432Y-73202946D01*
X105149785Y-73250577D01*
X105079743Y-73262184D01*
X105014546Y-73234081D01*
X104974892Y-73175190D01*
X104969000Y-73137111D01*
X104969000Y-71505889D01*
X104989002Y-71437768D01*
X105042658Y-71391275D01*
X105112932Y-71381171D01*
X105177512Y-71410665D01*
X105202432Y-71440054D01*
X105251235Y-71519693D01*
X105251242Y-71519702D01*
X105253824Y-71523916D01*
X105408031Y-71704469D01*
X105588584Y-71858676D01*
X105592792Y-71861255D01*
X105592798Y-71861259D01*
X105778832Y-71975261D01*
X105791037Y-71982740D01*
X105795607Y-71984633D01*
X105795611Y-71984635D01*
X105991483Y-72065767D01*
X106010406Y-72073605D01*
X106067725Y-72087366D01*
X106236476Y-72127880D01*
X106236482Y-72127881D01*
X106241289Y-72129035D01*
X106478000Y-72147665D01*
X106714711Y-72129035D01*
X106719518Y-72127881D01*
X106719524Y-72127880D01*
X106888275Y-72087366D01*
X106945594Y-72073605D01*
X106964517Y-72065767D01*
X107160389Y-71984635D01*
X107160393Y-71984633D01*
X107164963Y-71982740D01*
X107177168Y-71975261D01*
X107363202Y-71861259D01*
X107363208Y-71861255D01*
X107367416Y-71858676D01*
X107547969Y-71704469D01*
X107702176Y-71523916D01*
X107704755Y-71519708D01*
X107704759Y-71519702D01*
X107823654Y-71325683D01*
X107826240Y-71321463D01*
X107833145Y-71304794D01*
X107915211Y-71106667D01*
X107915212Y-71106665D01*
X107917105Y-71102094D01*
X107936360Y-71021891D01*
X107971380Y-70876024D01*
X107971381Y-70876018D01*
X107972535Y-70871211D01*
X107991165Y-70634500D01*
X107972535Y-70397789D01*
X107969974Y-70387118D01*
X107924944Y-70199557D01*
X107917105Y-70166906D01*
X107915211Y-70162333D01*
X107828135Y-69952111D01*
X107828133Y-69952107D01*
X107826240Y-69947537D01*
X107789868Y-69888184D01*
X107704759Y-69749298D01*
X107704755Y-69749292D01*
X107702176Y-69745084D01*
X107547969Y-69564531D01*
X107367416Y-69410324D01*
X107363208Y-69407745D01*
X107363202Y-69407741D01*
X107169183Y-69288846D01*
X107164963Y-69286260D01*
X107160393Y-69284367D01*
X107160389Y-69284365D01*
X106950167Y-69197289D01*
X106950165Y-69197288D01*
X106945594Y-69195395D01*
X106847064Y-69171740D01*
X106719524Y-69141120D01*
X106719518Y-69141119D01*
X106714711Y-69139965D01*
X106478000Y-69121335D01*
X106241289Y-69139965D01*
X106236482Y-69141119D01*
X106236476Y-69141120D01*
X106108936Y-69171740D01*
X106010406Y-69195395D01*
X106005835Y-69197288D01*
X106005833Y-69197289D01*
X105795611Y-69284365D01*
X105795607Y-69284367D01*
X105791037Y-69286260D01*
X105786817Y-69288846D01*
X105592798Y-69407741D01*
X105592792Y-69407745D01*
X105588584Y-69410324D01*
X105408031Y-69564531D01*
X105253824Y-69745084D01*
X105251242Y-69749297D01*
X105251235Y-69749307D01*
X105202432Y-69828946D01*
X105149785Y-69876577D01*
X105079743Y-69888184D01*
X105014546Y-69860081D01*
X104974892Y-69801190D01*
X104969000Y-69763111D01*
X104969000Y-67005889D01*
X104989002Y-66937768D01*
X105042658Y-66891275D01*
X105112932Y-66881171D01*
X105177512Y-66910665D01*
X105202432Y-66940054D01*
X105251235Y-67019693D01*
X105251242Y-67019702D01*
X105253824Y-67023916D01*
X105408031Y-67204469D01*
X105588584Y-67358676D01*
X105592792Y-67361255D01*
X105592798Y-67361259D01*
X105778180Y-67474861D01*
X105791037Y-67482740D01*
X105795607Y-67484633D01*
X105795611Y-67484635D01*
X106005833Y-67571711D01*
X106010406Y-67573605D01*
X106084049Y-67591285D01*
X106236476Y-67627880D01*
X106236482Y-67627881D01*
X106241289Y-67629035D01*
X106478000Y-67647665D01*
X106714711Y-67629035D01*
X106719518Y-67627881D01*
X106719524Y-67627880D01*
X106871951Y-67591285D01*
X106945594Y-67573605D01*
X106950167Y-67571711D01*
X107160389Y-67484635D01*
X107160393Y-67484633D01*
X107164963Y-67482740D01*
X107177820Y-67474861D01*
X107363202Y-67361259D01*
X107363208Y-67361255D01*
X107367416Y-67358676D01*
X107547969Y-67204469D01*
X107702176Y-67023916D01*
X107704755Y-67019708D01*
X107704759Y-67019702D01*
X107823654Y-66825683D01*
X107826240Y-66821463D01*
X107843001Y-66781000D01*
X107915211Y-66606667D01*
X107915212Y-66606665D01*
X107917105Y-66602094D01*
X107964820Y-66403347D01*
X107971380Y-66376024D01*
X107971381Y-66376018D01*
X107972535Y-66371211D01*
X107991165Y-66134500D01*
X107972535Y-65897789D01*
X107960212Y-65846457D01*
X107922796Y-65690611D01*
X107917105Y-65666906D01*
X107915211Y-65662333D01*
X107828135Y-65452111D01*
X107828133Y-65452107D01*
X107826240Y-65447537D01*
X107789868Y-65388184D01*
X107704759Y-65249298D01*
X107704755Y-65249292D01*
X107702176Y-65245084D01*
X107547969Y-65064531D01*
X107367416Y-64910324D01*
X107363208Y-64907745D01*
X107363202Y-64907741D01*
X107169183Y-64788846D01*
X107164963Y-64786260D01*
X107160393Y-64784367D01*
X107160389Y-64784365D01*
X106950167Y-64697289D01*
X106950165Y-64697288D01*
X106945594Y-64695395D01*
X106865391Y-64676140D01*
X106719524Y-64641120D01*
X106719518Y-64641119D01*
X106714711Y-64639965D01*
X106478000Y-64621335D01*
X106241289Y-64639965D01*
X106236482Y-64641119D01*
X106236476Y-64641120D01*
X106090609Y-64676140D01*
X106010406Y-64695395D01*
X106005835Y-64697288D01*
X106005833Y-64697289D01*
X105795611Y-64784365D01*
X105795607Y-64784367D01*
X105791037Y-64786260D01*
X105786817Y-64788846D01*
X105592798Y-64907741D01*
X105592792Y-64907745D01*
X105588584Y-64910324D01*
X105408031Y-65064531D01*
X105253824Y-65245084D01*
X105251242Y-65249297D01*
X105251235Y-65249307D01*
X105202432Y-65328946D01*
X105149785Y-65376577D01*
X105079743Y-65388184D01*
X105014546Y-65360081D01*
X104974892Y-65301190D01*
X104969000Y-65263111D01*
X104969000Y-62612893D01*
X104989002Y-62544772D01*
X105042658Y-62498279D01*
X105095812Y-62486897D01*
X111723736Y-62529768D01*
G37*
%TD.AperFunction*%
%TD*%
M02*
