M48
; DRILL file {KiCad (6.0.4)} date Sun 24 Apr 2022 07:44:22 PM CEST
; FORMAT={-:-/ absolute / metric / decimal}
; #@! TF.CreationDate,2022-04-24T19:44:22+02:00
; #@! TF.GenerationSoftware,Kicad,Pcbnew,(6.0.4)
; #@! TF.FileFunction,Plated,1,2,PTH
FMAT,2
METRIC
; #@! TA.AperFunction,Plated,PTH,ViaDrill
T1C0.400
; #@! TA.AperFunction,Plated,PTH,ComponentDrill
T2C0.500
; #@! TA.AperFunction,Plated,PTH,ComponentDrill
T3C0.700
; #@! TA.AperFunction,Plated,PTH,ComponentDrill
T4C0.800
; #@! TA.AperFunction,Plated,PTH,ComponentDrill
T5C1.000
; #@! TA.AperFunction,Plated,PTH,ComponentDrill
T6C1.100
; #@! TA.AperFunction,Plated,PTH,ComponentDrill
T7C1.500
%
G90
G05
T1
X115.824Y-67.564
X118.618Y-75.565
X119.634Y-64.008
X120.523Y-79.248
X120.65Y-88.392
X122.174Y-64.008
X122.301Y-72.39
X122.301Y-73.914
X123.19Y-88.392
X125.603Y-75.565
X125.857Y-77.47
X131.445Y-74.295
X133.477Y-86.487
X134.747Y-70.612
X138.557Y-86.487
X139.319Y-69.596
X139.319Y-76.454
X139.827Y-83.058
X141.224Y-65.786
X143.383Y-71.501
X145.288Y-78.232
X148.209Y-73.406
X148.209Y-75.946
X148.209Y-78.359
X153.67Y-67.31
X153.67Y-85.344
X154.67Y-67.31
X155.575Y-73.787
X155.575Y-80.391
X197.935Y-88.958
T2
X146.007Y-66.741
X146.007Y-68.641
T3
X151.257Y-61.849
X151.257Y-64.389
X156.591Y-61.849
X156.591Y-64.389
T4
X126.873Y-61.701
X127.0Y-90.699
X129.413Y-61.701
X129.54Y-90.699
X131.953Y-61.701
X132.08Y-90.699
X160.274Y-67.035
X162.814Y-67.035
X165.354Y-67.035
X176.149Y-61.701
X176.276Y-90.678
X178.689Y-61.701
X178.816Y-90.678
X181.229Y-61.701
X181.356Y-90.678
T5
X112.014Y-61.2
X112.014Y-91.2
X114.554Y-61.2
X114.554Y-91.2
X117.094Y-61.2
X117.094Y-91.2
X119.634Y-61.2
X119.634Y-91.2
X122.174Y-61.2
X122.174Y-91.2
X136.652Y-61.2
X136.652Y-91.2
X139.192Y-61.2
X139.192Y-91.2
X141.732Y-61.2
X141.732Y-91.2
X144.272Y-61.2
X144.272Y-91.2
X145.864Y-84.182
X145.864Y-86.722
X146.812Y-61.2
X146.812Y-91.2
X148.404Y-84.182
X148.404Y-86.722
X150.944Y-84.182
X150.944Y-86.722
X161.29Y-61.2
X161.29Y-91.2
X163.83Y-61.2
X163.83Y-91.2
X166.37Y-61.2
X166.37Y-91.2
X168.91Y-61.2
X168.91Y-91.2
X171.45Y-61.2
X171.45Y-91.2
X185.928Y-61.2
X185.928Y-91.2
X188.468Y-61.2
X188.468Y-91.2
X191.008Y-61.2
X191.008Y-91.2
X191.907Y-70.612
X193.548Y-61.2
X193.548Y-91.2
X196.088Y-61.2
X196.088Y-91.2
X199.507Y-70.612
T6
X106.478Y-66.135
X106.478Y-70.635
X106.478Y-74.008
X106.478Y-78.508
X106.478Y-81.882
X106.478Y-86.382
X112.978Y-66.135
X112.978Y-70.635
X112.978Y-74.008
X112.978Y-78.508
X112.978Y-81.882
X112.978Y-86.382
T7
X163.262Y-76.454
X183.752Y-76.454
T5
G00X191.437Y-84.821
M15
G01X191.437Y-82.821
M16
G05
G00X195.437Y-79.121
M15
G01X193.437Y-79.121
M16
G05
G00X197.437Y-84.821
M15
G01X197.437Y-82.821
M16
G05
T0
M30
