%TF.GenerationSoftware,KiCad,Pcbnew,(6.0.4)*%
%TF.CreationDate,2022-04-24T19:44:18+02:00*%
%TF.ProjectId,fancy-clock,66616e63-792d-4636-9c6f-636b2e6b6963,rev 1.0*%
%TF.SameCoordinates,Original*%
%TF.FileFunction,Soldermask,Top*%
%TF.FilePolarity,Negative*%
%FSLAX46Y46*%
G04 Gerber Fmt 4.6, Leading zero omitted, Abs format (unit mm)*
G04 Created by KiCad (PCBNEW (6.0.4)) date 2022-04-24 19:44:18*
%MOMM*%
%LPD*%
G01*
G04 APERTURE LIST*
G04 Aperture macros list*
%AMRoundRect*
0 Rectangle with rounded corners*
0 $1 Rounding radius*
0 $2 $3 $4 $5 $6 $7 $8 $9 X,Y pos of 4 corners*
0 Add a 4 corners polygon primitive as box body*
4,1,4,$2,$3,$4,$5,$6,$7,$8,$9,$2,$3,0*
0 Add four circle primitives for the rounded corners*
1,1,$1+$1,$2,$3*
1,1,$1+$1,$4,$5*
1,1,$1+$1,$6,$7*
1,1,$1+$1,$8,$9*
0 Add four rect primitives between the rounded corners*
20,1,$1+$1,$2,$3,$4,$5,0*
20,1,$1+$1,$4,$5,$6,$7,0*
20,1,$1+$1,$6,$7,$8,$9,0*
20,1,$1+$1,$8,$9,$2,$3,0*%
G04 Aperture macros list end*
%ADD10C,0.120000*%
%ADD11RoundRect,0.250000X-0.400000X-0.625000X0.400000X-0.625000X0.400000X0.625000X-0.400000X0.625000X0*%
%ADD12C,2.200000*%
%ADD13R,1.500000X1.500000*%
%ADD14C,1.500000*%
%ADD15C,1.000000*%
%ADD16RoundRect,0.250000X0.625000X-0.400000X0.625000X0.400000X-0.625000X0.400000X-0.625000X-0.400000X0*%
%ADD17RoundRect,0.250000X-0.325000X-0.450000X0.325000X-0.450000X0.325000X0.450000X-0.325000X0.450000X0*%
%ADD18RoundRect,0.250000X-0.412500X-0.650000X0.412500X-0.650000X0.412500X0.650000X-0.412500X0.650000X0*%
%ADD19RoundRect,0.250000X-0.625000X0.400000X-0.625000X-0.400000X0.625000X-0.400000X0.625000X0.400000X0*%
%ADD20RoundRect,0.250000X-0.337500X-0.475000X0.337500X-0.475000X0.337500X0.475000X-0.337500X0.475000X0*%
%ADD21R,3.500000X3.500000*%
%ADD22RoundRect,0.750000X0.750000X1.000000X-0.750000X1.000000X-0.750000X-1.000000X0.750000X-1.000000X0*%
%ADD23RoundRect,0.875000X0.875000X0.875000X-0.875000X0.875000X-0.875000X-0.875000X0.875000X-0.875000X0*%
%ADD24R,3.200000X0.400000*%
%ADD25R,1.700000X1.700000*%
%ADD26O,1.700000X1.700000*%
%ADD27R,1.600000X0.550000*%
%ADD28R,0.550000X1.600000*%
%ADD29C,2.000000*%
%ADD30C,1.400000*%
%ADD31O,1.400000X1.400000*%
%ADD32RoundRect,0.250000X0.337500X0.475000X-0.337500X0.475000X-0.337500X-0.475000X0.337500X-0.475000X0*%
%ADD33R,3.000000X3.000000*%
%ADD34C,3.000000*%
%ADD35RoundRect,0.150000X0.150000X-0.512500X0.150000X0.512500X-0.150000X0.512500X-0.150000X-0.512500X0*%
%ADD36R,2.000000X2.000000*%
%ADD37RoundRect,0.150000X0.800000X0.150000X-0.800000X0.150000X-0.800000X-0.150000X0.800000X-0.150000X0*%
%ADD38C,1.700000*%
G04 APERTURE END LIST*
%TO.C,BMD*%
G36*
X162072000Y-82826000D02*
G01*
X162082000Y-84306000D01*
X160782000Y-85056000D01*
X160782000Y-83566000D01*
X159482000Y-82836000D01*
X160782000Y-82096000D01*
X162072000Y-82826000D01*
G37*
D10*
X162072000Y-82826000D02*
X162082000Y-84306000D01*
X160782000Y-85056000D01*
X160782000Y-83566000D01*
X159482000Y-82836000D01*
X160782000Y-82096000D01*
X162072000Y-82826000D01*
%TD*%
D11*
%TO.C,R18*%
X143806000Y-78340000D03*
X146906000Y-78340000D03*
%TD*%
D12*
%TO.C,REF\u002A\u002A*%
X106299000Y-91948000D03*
%TD*%
D13*
%TO.C,Q1*%
X132080000Y-90699000D03*
D14*
X129540000Y-90699000D03*
X127000000Y-90699000D03*
%TD*%
D15*
%TO.C,Y1*%
X146007000Y-68641000D03*
X146007000Y-66741000D03*
%TD*%
D16*
%TO.C,R13*%
X115824000Y-82348000D03*
X115824000Y-79248000D03*
%TD*%
D12*
%TO.C,REF\u002A\u002A*%
X201676000Y-60452000D03*
%TD*%
D13*
%TO.C,Q5*%
X160274000Y-67035000D03*
D14*
X162814000Y-67035000D03*
X165354000Y-67035000D03*
%TD*%
D17*
%TO.C,D1*%
X153729000Y-86976000D03*
X155779000Y-86976000D03*
%TD*%
D18*
%TO.C,C5*%
X151159500Y-73768000D03*
X154284500Y-73768000D03*
%TD*%
D19*
%TO.C,R8*%
X128338000Y-83540000D03*
X128338000Y-86640000D03*
%TD*%
D16*
%TO.C,R2*%
X124782000Y-68968000D03*
X124782000Y-65868000D03*
%TD*%
D19*
%TO.C,R21*%
X142308000Y-84410000D03*
X142308000Y-87510000D03*
%TD*%
D20*
%TO.C,C3*%
X138984500Y-78340000D03*
X141059500Y-78340000D03*
%TD*%
D16*
%TO.C,R15*%
X115824000Y-72188000D03*
X115824000Y-69088000D03*
%TD*%
D21*
%TO.C,J2*%
X191437000Y-83821000D03*
D22*
X197437000Y-83821000D03*
D23*
X194437000Y-79121000D03*
%TD*%
D24*
%TO.C,Y2*%
X123063000Y-78048000D03*
X123063000Y-79248000D03*
X123063000Y-80448000D03*
%TD*%
D16*
%TO.C,R4*%
X119702000Y-68968000D03*
X119702000Y-65868000D03*
%TD*%
D13*
%TO.C,Q3*%
X181356000Y-90678000D03*
D14*
X178816000Y-90678000D03*
X176276000Y-90678000D03*
%TD*%
D12*
%TO.C,REF\u002A\u002A*%
X106299000Y-60452000D03*
%TD*%
D25*
%TO.C,J1*%
X145864000Y-86722000D03*
D26*
X145864000Y-84182000D03*
X148404000Y-86722000D03*
X148404000Y-84182000D03*
X150944000Y-86722000D03*
X150944000Y-84182000D03*
%TD*%
D19*
%TO.C,R5*%
X120650000Y-83540000D03*
X120650000Y-86640000D03*
%TD*%
D27*
%TO.C,U1*%
X127644000Y-74016000D03*
X127644000Y-74816000D03*
X127644000Y-75616000D03*
X127644000Y-76416000D03*
X127644000Y-77216000D03*
X127644000Y-78016000D03*
X127644000Y-78816000D03*
X127644000Y-79616000D03*
D28*
X129094000Y-81066000D03*
X129894000Y-81066000D03*
X130694000Y-81066000D03*
X131494000Y-81066000D03*
X132294000Y-81066000D03*
X133094000Y-81066000D03*
X133894000Y-81066000D03*
X134694000Y-81066000D03*
D27*
X136144000Y-79616000D03*
X136144000Y-78816000D03*
X136144000Y-78016000D03*
X136144000Y-77216000D03*
X136144000Y-76416000D03*
X136144000Y-75616000D03*
X136144000Y-74816000D03*
X136144000Y-74016000D03*
D28*
X134694000Y-72566000D03*
X133894000Y-72566000D03*
X133094000Y-72566000D03*
X132294000Y-72566000D03*
X131494000Y-72566000D03*
X130694000Y-72566000D03*
X129894000Y-72566000D03*
X129094000Y-72566000D03*
%TD*%
D29*
%TO.C,SW2*%
X106478000Y-74008500D03*
X112978000Y-74008500D03*
X106478000Y-78508500D03*
X112978000Y-78508500D03*
%TD*%
D16*
%TO.C,R14*%
X115824000Y-77268000D03*
X115824000Y-74168000D03*
%TD*%
D30*
%TO.C,TH1*%
X151257000Y-61849000D03*
D31*
X151257000Y-64389000D03*
%TD*%
D19*
%TO.C,R6*%
X123258000Y-83540000D03*
X123258000Y-86640000D03*
%TD*%
D18*
%TO.C,C4*%
X151159500Y-80372000D03*
X154284500Y-80372000D03*
%TD*%
D31*
%TO.C,PR1*%
X156591000Y-64389000D03*
D30*
X156591000Y-61849000D03*
%TD*%
D32*
%TO.C,C6*%
X122263500Y-75546000D03*
X120188500Y-75546000D03*
%TD*%
D33*
%TO.C,BT1*%
X163261584Y-76454000D03*
D34*
X183751584Y-76454000D03*
%TD*%
D13*
%TO.C,Q4*%
X176149000Y-61701000D03*
D14*
X178689000Y-61701000D03*
X181229000Y-61701000D03*
%TD*%
D35*
%TO.C,U7*%
X152516800Y-78201100D03*
X153466800Y-78201100D03*
X154416800Y-78201100D03*
X154416800Y-75926100D03*
X152516800Y-75926100D03*
%TD*%
D16*
%TO.C,R1*%
X127322000Y-68968000D03*
X127322000Y-65868000D03*
%TD*%
D19*
%TO.C,R19*%
X129862000Y-65868000D03*
X129862000Y-68968000D03*
%TD*%
%TO.C,R10*%
X134688000Y-84410000D03*
X134688000Y-87510000D03*
%TD*%
%TO.C,R7*%
X125798000Y-83540000D03*
X125798000Y-86640000D03*
%TD*%
%TO.C,R11*%
X137228000Y-84410000D03*
X137228000Y-87510000D03*
%TD*%
D11*
%TO.C,R17*%
X143806000Y-75800000D03*
X146906000Y-75800000D03*
%TD*%
D29*
%TO.C,SW3*%
X112978000Y-81882500D03*
X106478000Y-81882500D03*
X112978000Y-86382500D03*
X106478000Y-86382500D03*
%TD*%
D12*
%TO.C,REF\u002A\u002A*%
X201803000Y-91948000D03*
%TD*%
D19*
%TO.C,R9*%
X132148000Y-84410000D03*
X132148000Y-87510000D03*
%TD*%
D13*
%TO.C,Q2*%
X126873000Y-61701000D03*
D14*
X129413000Y-61701000D03*
X131953000Y-61701000D03*
%TD*%
D19*
%TO.C,R12*%
X139768000Y-84410000D03*
X139768000Y-87510000D03*
%TD*%
D11*
%TO.C,R20*%
X143806000Y-80880000D03*
X146906000Y-80880000D03*
%TD*%
%TO.C,R16*%
X143806000Y-73260000D03*
X146906000Y-73260000D03*
%TD*%
D36*
%TO.C,BZ1*%
X191907000Y-70612000D03*
D29*
X199507000Y-70612000D03*
%TD*%
D37*
%TO.C,U2*%
X143268000Y-69577000D03*
X143268000Y-68307000D03*
X143268000Y-67037000D03*
X143268000Y-65767000D03*
X136268000Y-65767000D03*
X136268000Y-67037000D03*
X136268000Y-68307000D03*
X136268000Y-69577000D03*
%TD*%
D16*
%TO.C,R3*%
X122242000Y-68968000D03*
X122242000Y-65868000D03*
%TD*%
D29*
%TO.C,SW1*%
X112978000Y-66134500D03*
X106478000Y-66134500D03*
X106478000Y-70634500D03*
X112978000Y-70634500D03*
%TD*%
D38*
%TO.C,U4*%
X136652000Y-61200000D03*
X139192000Y-61200000D03*
X141732000Y-61200000D03*
X144272000Y-61200000D03*
X146812000Y-61200000D03*
X146812000Y-91200000D03*
X144272000Y-91200000D03*
X141732000Y-91200000D03*
X139192000Y-91200000D03*
X136652000Y-91200000D03*
%TD*%
%TO.C,U6*%
X185928000Y-61200000D03*
X188468000Y-61200000D03*
X191008000Y-61200000D03*
X193548000Y-61200000D03*
X196088000Y-61200000D03*
X196088000Y-91200000D03*
X193548000Y-91200000D03*
X191008000Y-91200000D03*
X188468000Y-91200000D03*
X185928000Y-91200000D03*
%TD*%
%TO.C,U5*%
X161290000Y-61200000D03*
X163830000Y-61200000D03*
X166370000Y-61200000D03*
X168910000Y-61200000D03*
X171450000Y-61200000D03*
X171450000Y-91200000D03*
X168910000Y-91200000D03*
X166370000Y-91200000D03*
X163830000Y-91200000D03*
X161290000Y-91200000D03*
%TD*%
%TO.C,U3*%
X112014000Y-61200000D03*
X114554000Y-61200000D03*
X117094000Y-61200000D03*
X119634000Y-61200000D03*
X122174000Y-61200000D03*
X122174000Y-91200000D03*
X119634000Y-91200000D03*
X117094000Y-91200000D03*
X114554000Y-91200000D03*
X112014000Y-91200000D03*
%TD*%
M02*
