%TF.GenerationSoftware,KiCad,Pcbnew,(6.0.4)*%
%TF.CreationDate,2022-04-24T19:44:18+02:00*%
%TF.ProjectId,fancy-clock,66616e63-792d-4636-9c6f-636b2e6b6963,rev 1.0*%
%TF.SameCoordinates,Original*%
%TF.FileFunction,Legend,Bot*%
%TF.FilePolarity,Positive*%
%FSLAX46Y46*%
G04 Gerber Fmt 4.6, Leading zero omitted, Abs format (unit mm)*
G04 Created by KiCad (PCBNEW (6.0.4)) date 2022-04-24 19:44:18*
%MOMM*%
%LPD*%
G01*
G04 APERTURE LIST*
%ADD10C,0.150000*%
%ADD11C,0.120000*%
G04 APERTURE END LIST*
D10*
%TO.C,U4*%
X142493904Y-75652380D02*
X142493904Y-76461904D01*
X142446285Y-76557142D01*
X142398666Y-76604761D01*
X142303428Y-76652380D01*
X142112952Y-76652380D01*
X142017714Y-76604761D01*
X141970095Y-76557142D01*
X141922476Y-76461904D01*
X141922476Y-75652380D01*
X141017714Y-75985714D02*
X141017714Y-76652380D01*
X141255809Y-75604761D02*
X141493904Y-76319047D01*
X140874857Y-76319047D01*
%TO.C,U6*%
X191769904Y-75652380D02*
X191769904Y-76461904D01*
X191722285Y-76557142D01*
X191674666Y-76604761D01*
X191579428Y-76652380D01*
X191388952Y-76652380D01*
X191293714Y-76604761D01*
X191246095Y-76557142D01*
X191198476Y-76461904D01*
X191198476Y-75652380D01*
X190293714Y-75652380D02*
X190484190Y-75652380D01*
X190579428Y-75700000D01*
X190627047Y-75747619D01*
X190722285Y-75890476D01*
X190769904Y-76080952D01*
X190769904Y-76461904D01*
X190722285Y-76557142D01*
X190674666Y-76604761D01*
X190579428Y-76652380D01*
X190388952Y-76652380D01*
X190293714Y-76604761D01*
X190246095Y-76557142D01*
X190198476Y-76461904D01*
X190198476Y-76223809D01*
X190246095Y-76128571D01*
X190293714Y-76080952D01*
X190388952Y-76033333D01*
X190579428Y-76033333D01*
X190674666Y-76080952D01*
X190722285Y-76128571D01*
X190769904Y-76223809D01*
%TO.C,U5*%
X167131904Y-75652380D02*
X167131904Y-76461904D01*
X167084285Y-76557142D01*
X167036666Y-76604761D01*
X166941428Y-76652380D01*
X166750952Y-76652380D01*
X166655714Y-76604761D01*
X166608095Y-76557142D01*
X166560476Y-76461904D01*
X166560476Y-75652380D01*
X165608095Y-75652380D02*
X166084285Y-75652380D01*
X166131904Y-76128571D01*
X166084285Y-76080952D01*
X165989047Y-76033333D01*
X165750952Y-76033333D01*
X165655714Y-76080952D01*
X165608095Y-76128571D01*
X165560476Y-76223809D01*
X165560476Y-76461904D01*
X165608095Y-76557142D01*
X165655714Y-76604761D01*
X165750952Y-76652380D01*
X165989047Y-76652380D01*
X166084285Y-76604761D01*
X166131904Y-76557142D01*
%TO.C,U3*%
X117855904Y-75652380D02*
X117855904Y-76461904D01*
X117808285Y-76557142D01*
X117760666Y-76604761D01*
X117665428Y-76652380D01*
X117474952Y-76652380D01*
X117379714Y-76604761D01*
X117332095Y-76557142D01*
X117284476Y-76461904D01*
X117284476Y-75652380D01*
X116903523Y-75652380D02*
X116284476Y-75652380D01*
X116617809Y-76033333D01*
X116474952Y-76033333D01*
X116379714Y-76080952D01*
X116332095Y-76128571D01*
X116284476Y-76223809D01*
X116284476Y-76461904D01*
X116332095Y-76557142D01*
X116379714Y-76604761D01*
X116474952Y-76652380D01*
X116760666Y-76652380D01*
X116855904Y-76604761D01*
X116903523Y-76557142D01*
D11*
%TO.C,U4*%
X129632000Y-59100000D02*
X153832000Y-59100000D01*
X153832000Y-59100000D02*
X153832000Y-93300000D01*
X153832000Y-93300000D02*
X129632000Y-93300000D01*
X129632000Y-93300000D02*
X129632000Y-59100000D01*
%TO.C,U6*%
X178908000Y-59100000D02*
X203108000Y-59100000D01*
X203108000Y-59100000D02*
X203108000Y-93300000D01*
X203108000Y-93300000D02*
X178908000Y-93300000D01*
X178908000Y-93300000D02*
X178908000Y-59100000D01*
%TO.C,U5*%
X154270000Y-59100000D02*
X178470000Y-59100000D01*
X178470000Y-59100000D02*
X178470000Y-93300000D01*
X178470000Y-93300000D02*
X154270000Y-93300000D01*
X154270000Y-93300000D02*
X154270000Y-59100000D01*
%TO.C,U3*%
X104994000Y-59100000D02*
X129194000Y-59100000D01*
X129194000Y-59100000D02*
X129194000Y-93300000D01*
X129194000Y-93300000D02*
X104994000Y-93300000D01*
X104994000Y-93300000D02*
X104994000Y-59100000D01*
%TD*%
M02*
